<svg width="298" height="430" viewBox="0 0 298 430" fill="none" xmlns="http://www.w3.org/2000/svg">
<path d="M183.232 271.254L183.235 271.253C244.313 241.138 295.555 201.175 295.555 128.958C295.555 94.4102 282.773 62.4042 258.549 39.0366C234.323 15.6666 198.72 1 153.19 1C112.831 1 78.2978 12.1851 52.4031 34.5622C26.5055 56.9419 9.34836 90.43 3.58436 134.846L3.57604 134.91V134.975V160.847V161.847H4.57604H76.4668H77.4245L77.4658 160.891C78.6685 133.04 85.731 110.409 98.3149 94.7612C110.871 79.1475 129 70.3898 152.586 70.3898C171.997 70.3898 187.899 76.7808 198.941 87.3362C209.983 97.8905 216.228 112.666 216.228 129.559C216.228 152.036 205.566 168.473 188.351 182.562C171.518 196.339 148.52 207.789 123.264 220.362C122.623 220.682 121.98 221.002 121.336 221.322C91.4233 235.767 61.5236 252.079 39.1111 276.066C16.6609 300.094 1.76367 331.776 1.76367 376.856V428V429H2.76367H295.764H296.764V428V362.415V361.415H295.764H83.5091C83.6188 342.421 91.5909 328.197 107.917 314.597C124.421 300.849 149.378 287.812 183.232 271.254Z" stroke="white" stroke-width="2"/>
</svg>
