<svg width="48" height="61" viewBox="0 0 48 61" fill="none" xmlns="http://www.w3.org/2000/svg">
<mask id="path-1-outside-1_2317_157" maskUnits="userSpaceOnUse" x="5" y="1" width="42" height="59" fill="black">
<rect fill="white" x="5" y="1" width="42" height="59"/>
<path d="M5.6 44.4V40.96H15.2C16.4 47.84 20.72 50.56 26 50.56C32.08 50.56 35.76 46.8 35.76 42.08C35.76 37.6 32.56 33.6 25.84 33.6H20.56V25.76H26C31.28 25.76 34.8 22.56 34.8 18C34.8 13.44 31.28 10.16 26.08 10.16C21.2 10.16 17.28 13.2 16.64 18.72H7.28V15.28C9.04 7.2 15.52 1.36 26.4 1.36C38 1.36 44.8 8.24 44.8 16.4C44.8 22.8 40.88 27.04 36.08 28.56V29.92C41.6 31.52 46 36.16 46 43.28C46 52.32 38.64 59.44 26.24 59.44C15.12 59.44 7.6 53.76 5.6 44.4Z"/>
</mask>
<path d="M5.6 44.4H5.3V44.4317L5.30662 44.4627L5.6 44.4ZM5.6 40.96V40.66H5.3V40.96H5.6ZM15.2 40.96L15.4955 40.9085L15.4522 40.66H15.2V40.96ZM20.56 33.6H20.26V33.9H20.56V33.6ZM20.56 25.76V25.46H20.26V25.76H20.56ZM16.64 18.72V19.02H16.9072L16.938 18.7545L16.64 18.72ZM7.28 18.72H6.98V19.02H7.28V18.72ZM7.28 15.28L6.98687 15.2161L6.98 15.2477V15.28H7.28ZM36.08 28.56L35.9894 28.274L35.78 28.3403V28.56H36.08ZM36.08 29.92H35.78V30.1454L35.9965 30.2081L36.08 29.92ZM5.6 44.4H5.9V40.96H5.6H5.3V44.4H5.6ZM5.6 40.96V41.26H15.2V40.96V40.66H5.6V40.96ZM15.2 40.96L14.9045 41.0115C15.514 44.5062 16.9228 46.9774 18.8805 48.5726C20.8366 50.1664 23.3091 50.86 26 50.86V50.56V50.26C23.4109 50.26 21.0834 49.5936 19.2595 48.1074C17.4372 46.6226 16.086 44.2937 15.4955 40.9085L15.2 40.96ZM26 50.56V50.86C29.1023 50.86 31.6182 49.8999 33.362 48.3118C35.1068 46.7228 36.06 44.5211 36.06 42.08H35.76H35.46C35.46 44.3589 34.5732 46.3972 32.958 47.8682C31.3418 49.3401 28.9777 50.26 26 50.26V50.56ZM35.76 42.08H36.06C36.06 39.7677 35.2331 37.5657 33.5268 35.9426C31.82 34.3191 29.2603 33.3 25.84 33.3V33.6V33.9C29.1397 33.9 31.54 34.8809 33.1132 36.3774C34.6869 37.8743 35.46 39.9123 35.46 42.08H35.76ZM25.84 33.6V33.3H20.56V33.6V33.9H25.84V33.6ZM20.56 33.6H20.86V25.76H20.56H20.26V33.6H20.56ZM20.56 25.76V26.06H26V25.76V25.46H20.56V25.76ZM26 25.76V26.06C28.7 26.06 30.9752 25.2413 32.5794 23.8141C34.1863 22.3847 35.1 20.3617 35.1 18H34.8H34.5C34.5 20.1983 33.6537 22.0553 32.1806 23.3659C30.7048 24.6787 28.58 25.46 26 25.46V25.76ZM34.8 18H35.1C35.1 15.6388 34.1868 13.597 32.5917 12.1479C30.9986 10.7006 28.7431 9.86 26.08 9.86V10.16V10.46C28.6169 10.46 30.7214 11.2594 32.1883 12.592C33.6532 13.923 34.5 15.8012 34.5 18H34.8ZM26.08 10.16V9.86C23.5773 9.86 21.3047 10.6402 19.5733 12.1435C17.8406 13.6479 16.6696 15.8596 16.342 18.6854L16.64 18.72L16.938 18.7545C17.2504 16.0604 18.3594 13.992 19.9667 12.5965C21.5753 11.1998 23.7027 10.46 26.08 10.46V10.16ZM16.64 18.72V18.42H7.28V18.72V19.02H16.64V18.72ZM7.28 18.72H7.58V15.28H7.28H6.98V18.72H7.28ZM7.28 15.28L7.57313 15.3438C8.43968 11.3656 10.4648 7.94998 13.6033 5.52748C16.7421 3.1047 21.0145 1.66 26.4 1.66V1.36V1.06C20.9055 1.06 16.4979 2.53529 13.2367 5.05251C9.97516 7.57001 7.88032 11.1144 6.98687 15.2161L7.28 15.28ZM26.4 1.36V1.66C37.875 1.66 44.5 8.4436 44.5 16.4H44.8H45.1C45.1 8.03639 38.125 1.06 26.4 1.06V1.36ZM44.8 16.4H44.5C44.5 22.6572 40.6766 26.7897 35.9894 28.274L36.08 28.56L36.1706 28.846C41.0835 27.2903 45.1 22.9428 45.1 16.4H44.8ZM36.08 28.56H35.78V29.92H36.08H36.38V28.56H36.08ZM36.08 29.92L35.9965 30.2081C41.4018 31.7749 45.7 36.3071 45.7 43.28H46H46.3C46.3 36.0129 41.7982 31.2651 36.1635 29.6319L36.08 29.92ZM46 43.28H45.7C45.7 47.7138 43.8972 51.6702 40.5746 54.5224C37.2494 57.3767 32.3834 59.14 26.24 59.14V59.44V59.74C32.4966 59.74 37.5106 57.9433 40.9654 54.9776C44.4228 52.0098 46.3 47.8862 46.3 43.28H46ZM26.24 59.44V59.14C20.7307 59.14 16.1365 57.7333 12.6778 55.1884C9.22136 52.6451 6.87923 48.9511 5.89338 44.3373L5.6 44.4L5.30662 44.4627C6.32077 49.2089 8.73864 53.0349 12.3222 55.6716C15.9035 58.3067 20.6293 59.74 26.24 59.74V59.44Z" fill="white" mask="url(#path-1-outside-1_2317_157)"/>
<mask id="path-3-outside-2_2317_157" maskUnits="userSpaceOnUse" x="1" y="1" width="42" height="59" fill="black">
<rect fill="white" x="1" y="1" width="42" height="59"/>
<path d="M1.6 44.4V40.96H11.2C12.4 47.84 16.72 50.56 22 50.56C28.08 50.56 31.76 46.8 31.76 42.08C31.76 37.6 28.56 33.6 21.84 33.6H16.56V25.76H22C27.28 25.76 30.8 22.56 30.8 18C30.8 13.44 27.28 10.16 22.08 10.16C17.2 10.16 13.28 13.2 12.64 18.72H3.28V15.28C5.04 7.2 11.52 1.36 22.4 1.36C34 1.36 40.8 8.24 40.8 16.4C40.8 22.8 36.88 27.04 32.08 28.56V29.92C37.6 31.52 42 36.16 42 43.28C42 52.32 34.64 59.44 22.24 59.44C11.12 59.44 3.6 53.76 1.6 44.4Z"/>
</mask>
<path d="M1.6 44.4H1.3V44.4317L1.30662 44.4627L1.6 44.4ZM1.6 40.96V40.66H1.3V40.96H1.6ZM11.2 40.96L11.4955 40.9085L11.4522 40.66H11.2V40.96ZM16.56 33.6H16.26V33.9H16.56V33.6ZM16.56 25.76V25.46H16.26V25.76H16.56ZM12.64 18.72V19.02H12.9072L12.938 18.7545L12.64 18.72ZM3.28 18.72H2.98V19.02H3.28V18.72ZM3.28 15.28L2.98687 15.2161L2.98 15.2477V15.28H3.28ZM32.08 28.56L31.9894 28.274L31.78 28.3403V28.56H32.08ZM32.08 29.92H31.78V30.1454L31.9965 30.2081L32.08 29.92ZM1.6 44.4H1.9V40.96H1.6H1.3V44.4H1.6ZM1.6 40.96V41.26H11.2V40.96V40.66H1.6V40.96ZM11.2 40.96L10.9045 41.0115C11.514 44.5062 12.9228 46.9774 14.8805 48.5726C16.8366 50.1664 19.3091 50.86 22 50.86V50.56V50.26C19.4109 50.26 17.0834 49.5936 15.2595 48.1074C13.4372 46.6226 12.086 44.2937 11.4955 40.9085L11.2 40.96ZM22 50.56V50.86C25.1023 50.86 27.6182 49.8999 29.362 48.3118C31.1068 46.7228 32.06 44.5211 32.06 42.08H31.76H31.46C31.46 44.3589 30.5732 46.3972 28.958 47.8682C27.3418 49.3401 24.9777 50.26 22 50.26V50.56ZM31.76 42.08H32.06C32.06 39.7677 31.2331 37.5657 29.5268 35.9426C27.82 34.3191 25.2603 33.3 21.84 33.3V33.6V33.9C25.1397 33.9 27.54 34.8809 29.1132 36.3774C30.6869 37.8743 31.46 39.9123 31.46 42.08H31.76ZM21.84 33.6V33.3H16.56V33.6V33.9H21.84V33.6ZM16.56 33.6H16.86V25.76H16.56H16.26V33.6H16.56ZM16.56 25.76V26.06H22V25.76V25.46H16.56V25.76ZM22 25.76V26.06C24.7 26.06 26.9752 25.2413 28.5794 23.8141C30.1863 22.3847 31.1 20.3617 31.1 18H30.8H30.5C30.5 20.1983 29.6537 22.0553 28.1806 23.3659C26.7048 24.6787 24.58 25.46 22 25.46V25.76ZM30.8 18H31.1C31.1 15.6388 30.1868 13.597 28.5917 12.1479C26.9986 10.7006 24.7431 9.86 22.08 9.86V10.16V10.46C24.6169 10.46 26.7214 11.2594 28.1883 12.592C29.6532 13.923 30.5 15.8012 30.5 18H30.8ZM22.08 10.16V9.86C19.5773 9.86 17.3047 10.6402 15.5733 12.1435C13.8406 13.6479 12.6696 15.8596 12.342 18.6854L12.64 18.72L12.938 18.7545C13.2504 16.0604 14.3594 13.992 15.9667 12.5965C17.5753 11.1998 19.7027 10.46 22.08 10.46V10.16ZM12.64 18.72V18.42H3.28V18.72V19.02H12.64V18.72ZM3.28 18.72H3.58V15.28H3.28H2.98V18.72H3.28ZM3.28 15.28L3.57313 15.3438C4.43968 11.3656 6.46484 7.94998 9.60331 5.52748C12.7421 3.1047 17.0145 1.66 22.4 1.66V1.36V1.06C16.9055 1.06 12.4979 2.53529 9.23669 5.05251C5.97516 7.57001 3.88032 11.1144 2.98687 15.2161L3.28 15.28ZM22.4 1.36V1.66C33.875 1.66 40.5 8.4436 40.5 16.4H40.8H41.1C41.1 8.03639 34.125 1.06 22.4 1.06V1.36ZM40.8 16.4H40.5C40.5 22.6572 36.6766 26.7897 31.9894 28.274L32.08 28.56L32.1706 28.846C37.0835 27.2903 41.1 22.9428 41.1 16.4H40.8ZM32.08 28.56H31.78V29.92H32.08H32.38V28.56H32.08ZM32.08 29.92L31.9965 30.2081C37.4018 31.7749 41.7 36.3071 41.7 43.28H42H42.3C42.3 36.0129 37.7982 31.2651 32.1635 29.6319L32.08 29.92ZM42 43.28H41.7C41.7 47.7138 39.8972 51.6702 36.5746 54.5224C33.2494 57.3767 28.3834 59.14 22.24 59.14V59.44V59.74C28.4966 59.74 33.5106 57.9433 36.9654 54.9776C40.4228 52.0098 42.3 47.8862 42.3 43.28H42ZM22.24 59.44V59.14C16.7307 59.14 12.1365 57.7333 8.6778 55.1884C5.22136 52.6451 2.87923 48.9511 1.89338 44.3373L1.6 44.4L1.30662 44.4627C2.32077 49.2089 4.73864 53.0349 8.3222 55.6716C11.9035 58.3067 16.6293 59.74 22.24 59.74V59.44Z" fill="white" mask="url(#path-3-outside-2_2317_157)"/>
</svg>
