<svg width="1254" height="418" viewBox="0 0 1254 418" fill="none" xmlns="http://www.w3.org/2000/svg">
<g clip-path="url(#clip0_389_224)">
<g clip-path="url(#clip1_389_224)">
<g clip-path="url(#clip2_389_224)">
<mask id="mask0_389_224" style="mask-type:luminance" maskUnits="userSpaceOnUse" x="0" y="0" width="1255" height="418">
<path d="M1255 0H0V418H1255V0Z" fill="white"/>
</mask>
<g mask="url(#mask0_389_224)">
<path d="M822.722 27.4C822.121 27.202 821.555 26.864 821.077 26.386L801.205 6.52947C797.021 2.34871 791.346 0 785.428 0H16.7333C7.49175 0 0 7.48579 0 16.72V146.3C0 158.613 10.5872 168.131 21.3957 174.044C35.2364 181.614 44.6222 196.303 44.6222 213.18C44.6222 230.057 35.2364 244.746 21.3957 252.316C10.5872 258.229 0 267.747 0 280.06V401.28C0 410.514 7.49176 418 16.7333 418H787.5C792.078 418 796.458 416.126 799.615 412.813L821.077 390.302C821.555 389.824 822.121 389.487 822.722 389.288V27.4Z" fill="#72FFB9"/>
<mask id="mask1_389_224" style="mask-type:alpha" maskUnits="userSpaceOnUse" x="0" y="0" width="823" height="418">
<path d="M822.722 27.4C822.121 27.202 821.555 26.864 821.077 26.386L801.205 6.52947C797.021 2.34871 791.346 0 785.428 0H16.7333C7.49175 0 0 7.48579 0 16.72V146.3C0 158.613 10.5872 168.131 21.3957 174.044C35.2364 181.614 44.6222 196.303 44.6222 213.18C44.6222 230.057 35.2364 244.746 21.3957 252.316C10.5872 258.229 0 267.747 0 280.06V401.28C0 410.514 7.49176 418 16.7333 418H787.5C792.078 418 796.458 416.126 799.615 412.813L821.077 390.302C821.555 389.824 822.121 389.487 822.722 389.288V27.4Z" fill="#24F89D"/>
</mask>
<g mask="url(#mask1_389_224)">
<g filter="url(#filter0_f_389_224)">
<path d="M430.353 531.201C539.401 450.807 613.563 366.354 596 342.568C578.437 318.783 475.798 364.673 366.751 445.066C257.703 525.46 183.54 609.913 201.104 633.698C218.667 657.484 321.305 611.594 430.353 531.201Z" fill="#5FDDFF"/>
</g>
<g filter="url(#filter1_f_389_224)">
<path d="M146.33 353.038C65.7738 243.945 -18.8268 169.734 -42.6309 187.284C-66.4351 204.833 -20.4286 307.497 60.1275 416.589C140.683 525.682 225.284 599.893 249.088 582.343C272.892 564.794 226.886 462.13 146.33 353.038Z" fill="#12FF80"/>
</g>
</g>
<path d="M822.722 389.288C824.175 388.81 825.837 389.148 826.992 390.302L846.806 411.084C851.017 415.5 856.855 418 862.96 418H1238.27C1247.51 418 1255 410.514 1255 401.28V268.913C1255 262.758 1249.93 257.91 1243.96 256.391C1224.65 251.48 1210.38 233.996 1210.38 213.18C1210.38 192.364 1224.65 174.88 1243.96 169.969C1249.93 168.45 1255 163.602 1255 157.447V16.72C1255 7.48579 1247.51 0 1238.27 0H860.332C855.893 0 851.637 1.76154 848.498 4.89711L826.992 26.386C825.837 27.5403 824.175 27.8784 822.722 27.4V389.288Z" fill="url(#paint0_linear_389_224)"/>
<path d="M823.419 27.8667V388.74" stroke="black" stroke-dasharray="4 8"/>
</g>
</g>
</g>
<g clip-path="url(#clip3_389_224)">
<g clip-path="url(#clip4_389_224)">
<mask id="mask2_389_224" style="mask-type:luminance" maskUnits="userSpaceOnUse" x="-1" y="0" width="1255" height="418">
<path d="M1254 0H-1V418H1254V0Z" fill="white"/>
</mask>
<g mask="url(#mask2_389_224)">
<path d="M821.722 389.288C823.175 388.81 824.837 389.148 825.992 390.302L845.806 411.084C850.017 415.5 855.855 418 861.96 418H1237.27C1246.51 418 1254 410.514 1254 401.28V268.913C1254 262.758 1248.93 257.91 1242.96 256.391C1223.65 251.48 1209.38 233.996 1209.38 213.18C1209.38 192.364 1223.65 174.88 1242.96 169.969C1248.93 168.45 1254 163.602 1254 157.447V16.72C1254 7.48579 1246.51 0 1237.27 0H859.332C854.893 0 850.637 1.76154 847.498 4.89711L825.992 26.386C824.837 27.5403 823.175 27.8784 821.722 27.4V389.288Z" fill="url(#paint1_linear_389_224)"/>
</g>
</g>
</g>
</g>
<defs>
<filter id="filter0_f_389_224" x="26.8553" y="164.618" width="743.393" height="647.032" filterUnits="userSpaceOnUse" color-interpolation-filters="sRGB">
<feFlood flood-opacity="0" result="BackgroundImageFix"/>
<feBlend mode="normal" in="SourceGraphic" in2="BackgroundImageFix" result="shape"/>
<feGaussianBlur stdDeviation="85.8369" result="effect1_foregroundBlur_389_224"/>
</filter>
<filter id="filter1_f_389_224" x="-220.579" y="13.0404" width="647.616" height="743.546" filterUnits="userSpaceOnUse" color-interpolation-filters="sRGB">
<feFlood flood-opacity="0" result="BackgroundImageFix"/>
<feBlend mode="normal" in="SourceGraphic" in2="BackgroundImageFix" result="shape"/>
<feGaussianBlur stdDeviation="85.8369" result="effect1_foregroundBlur_389_224"/>
</filter>
<linearGradient id="paint0_linear_389_224" x1="1266.06" y1="-0.305791" x2="746.594" y2="337.644" gradientUnits="userSpaceOnUse">
<stop offset="0.0328893" stop-color="#12FF80"/>
<stop offset="1" stop-color="#33E1AD"/>
</linearGradient>
<linearGradient id="paint1_linear_389_224" x1="1265.06" y1="-0.305791" x2="745.594" y2="337.644" gradientUnits="userSpaceOnUse">
<stop offset="0.0328893" stop-color="#12FF80"/>
<stop offset="1" stop-color="#33E1AD"/>
</linearGradient>
<clipPath id="clip0_389_224">
<rect width="1254" height="418" fill="white"/>
</clipPath>
<clipPath id="clip1_389_224">
<rect width="823" height="418" fill="white"/>
</clipPath>
<clipPath id="clip2_389_224">
<rect width="1255" height="418" fill="white"/>
</clipPath>
<clipPath id="clip3_389_224">
<rect width="431" height="418" fill="white" transform="translate(823)"/>
</clipPath>
<clipPath id="clip4_389_224">
<rect width="1255" height="418" fill="white" transform="translate(-1)"/>
</clipPath>
</defs>
</svg>
