<svg width="719" height="162" viewBox="0 0 719 162" fill="none" xmlns="http://www.w3.org/2000/svg">
<path d="M64.0942 19.9895V27.7153H53.1493V35.4411H42.2044V43.1668H31.2596V50.8926H20.3147V61.8375H9.36987V136.073H69.4838V125.128H80.4287V117.402H91.3735V109.677H102.318V101.951H113.263V94.2251H124.208V19.9895H64.0942ZM120.788 90.8092H113.263V27.7153H67.5146V23.4091H120.788V90.8092ZM109.843 94.2287V98.534H102.319V35.4401H56.5698V31.1349H109.843V94.2287ZM98.8979 101.955V106.26H91.3735V43.1659H45.6259V38.8597H98.8988V101.954L98.8979 101.955ZM87.953 109.68V113.986H80.4287V50.8917H34.6819V46.5855H87.9549V109.679L87.953 109.68ZM77.0082 117.406V121.711H69.4847V61.8366H23.7371V54.3104H77.01V117.404L77.0082 117.406ZM66.0633 125.132V132.656H12.7931V65.2552H66.0661V125.13L66.0633 125.132Z" fill="white"/>
<path d="M27.9419 91.007C30.0087 91.007 31.6843 89.3315 31.6843 87.2646C31.6843 85.1977 30.0087 83.5222 27.9419 83.5222C25.875 83.5222 24.1995 85.1977 24.1995 87.2646C24.1995 89.3315 25.875 91.007 27.9419 91.007Z" fill="white"/>
<path d="M44.5991 91.007C46.666 91.007 48.3415 89.3315 48.3415 87.2646C48.3415 85.1977 46.666 83.5222 44.5991 83.5222C42.5322 83.5222 40.8567 85.1977 40.8567 87.2646C40.8567 89.3315 42.5322 91.007 44.5991 91.007Z" fill="white"/>
<path d="M50.9675 98.6748C50.7688 101.798 49.3881 104.728 47.1061 106.87C44.8241 109.011 41.8121 110.203 38.6826 110.203C35.5532 110.203 32.5412 109.011 30.2591 106.87C27.9771 104.728 26.5964 101.798 26.3977 98.6748H50.9675Z" fill="white"/>
<path d="M169.159 37.4268V31.4026H191.322V43.451H176.548V55.5023H191.322V67.5535H176.548V115.75H161.771V67.5535H146.993V55.505H161.771V43.4538H169.159V37.4268Z" fill="white"/>
<path d="M213.487 61.5265V55.5023H235.65V103.699H250.428V115.747H206.099V103.699H220.876V67.5535H213.487V61.5265ZM220.876 37.4268V31.4026H235.65V43.451H220.876V37.4268Z" fill="white"/>
<path d="M272.594 37.4268V31.4026H294.759V103.699H309.536V115.747H265.205V103.699H279.985V43.451H272.594V37.4268Z" fill="white"/>
<path d="M324.311 61.5266V55.5023H361.267V67.5536H368.653V91.6532H331.699V103.702H361.254V115.75H324.297V103.702H316.922V67.5536H324.311V61.5266ZM353.865 73.575V67.5536H331.699V79.602H353.865V73.575Z" fill="white"/>
<path d="M383.417 73.575V55.5134H398.194V91.6616H412.971V55.5023H427.748V91.6504H420.359V103.699H412.971V115.747H398.194V103.699H390.805V91.6504H383.417V73.575Z" fill="white"/>
<path d="M442.539 61.5266V55.5023H479.479V67.5536H486.868V91.6532H449.911V103.702H479.465V115.75H442.539V103.702H435.15V67.5536H442.539V61.5266ZM472.09 73.575V67.5536H449.925V79.602H472.09V73.575Z" fill="white"/>
<path d="M501.628 85.6152V55.494H516.405V67.5536H523.794V55.5051H545.959V67.5536H523.794V79.602H516.405V115.75H501.628V85.6152Z" fill="white"/>
<path d="M560.734 61.5266V55.5023H597.691V67.5536H568.136V79.602H597.691V91.6532H605.079V103.702H597.691V115.75H553.345V103.702H590.302V91.6532H560.734V79.602H553.345V67.5536H560.734V61.5266Z" fill="white"/>
<path d="M619.842 61.5266V55.5023H656.777V67.5536H664.165V91.6532H627.228V103.702H656.777V115.75H619.842V103.702H612.454V67.5536H619.842V61.5266ZM649.394 73.575V67.5536H627.228V79.602H649.394V73.575Z" fill="white"/>
</svg>
