<svg width="446" height="161" viewBox="0 0 446 161" fill="none" xmlns="http://www.w3.org/2000/svg">
<path d="M84.4607 56.7421C84.4516 58.2573 83.0581 59.329 81.5512 59.1705C77.8158 58.7776 74.3934 58.8103 71.1941 59.1434C64.2296 59.8685 58.4421 62.0152 53.1065 63.9942L53.0946 63.9986C52.772 64.1184 52.4507 64.2375 52.1307 64.3557C46.4652 66.4497 41.2447 68.2511 35.0508 68.394C32.58 68.4511 29.9177 68.2434 26.9868 67.6542C24.4724 67.1487 22.464 65.2307 21.9657 62.715C21.5711 60.7216 21.364 58.6607 21.364 56.5513C21.364 39.126 35.489 25 52.9126 25C70.3367 25 84.4612 39.126 84.4612 56.5513C84.4612 56.615 84.4612 56.6785 84.4607 56.7421Z" fill="url(#paint0_radial_373_2915)"/>
<path d="M24.1701 72.4213C21.8008 71.8523 19.6391 74.3983 20.8055 76.5375L51.7729 133.316C52.2712 134.229 53.5829 134.229 54.0812 133.316L88.2607 70.6474C89.4731 68.4247 88.3067 65.6404 85.8241 65.1444C80.4229 64.0652 75.8214 63.9492 71.7255 64.3757C65.4414 65.0299 60.2219 66.9635 54.8039 68.9707C54.5167 69.077 54.2291 69.1836 53.941 69.2902C48.2686 71.3868 42.3159 73.4882 35.159 73.653C31.7575 73.7316 28.1344 73.3737 24.1701 72.4213Z" fill="url(#paint1_linear_373_2915)"/>
<path d="M52.9146 70.7655C52.9146 70.1068 53.3255 69.5185 53.9431 69.2902C54.2316 69.1836 54.5193 69.077 54.8064 68.9707C60.2244 66.9635 65.444 65.0299 71.728 64.3757C75.8239 63.9492 80.4255 64.0652 85.8266 65.1444C88.3092 65.6404 89.4756 68.4247 88.2633 70.6474L54.0832 133.316C53.8316 133.777 53.3719 134.006 52.9146 134.001V70.7655Z" fill="url(#paint2_linear_373_2915)"/>
<path fill-rule="evenodd" clip-rule="evenodd" d="M164.565 43.4766C160.524 42.3238 156.769 41.7474 153.014 41.7474C146.083 41.7474 139.73 43.4766 133.956 46.3584C128.18 49.5283 123.848 53.851 120.672 59.6146C117.495 65.3782 116.051 71.7183 116.051 79.2107C116.051 86.7036 117.784 93.0433 120.961 98.8071C124.136 104.57 128.757 108.893 134.243 112.063C139.73 115.233 145.792 116.962 152.728 116.962C159.076 116.962 164.852 115.81 170.053 112.928C175.251 110.334 179.292 106.3 182.469 100.824C185.645 95.3486 187.088 89.0089 187.088 81.5161V78.3465C187.088 77.9441 187.088 77.479 187.088 76.9808L187.092 76.3831C187.092 75.7168 186.551 75.1764 185.882 75.1764H155.95C155.281 75.1764 154.739 75.7168 154.739 76.3831V86.9375C154.739 87.6042 155.281 88.1446 155.95 88.1446H169.612C170.103 88.1446 170.481 88.582 170.395 89.0652C170.108 90.6217 169.703 92.035 169.184 93.3317C168.028 96.5018 166.008 98.5187 163.122 100.248C160.524 101.689 157.056 102.554 152.728 102.554C149.26 102.554 145.792 101.401 142.907 99.6718C139.73 97.6544 137.418 95.0607 135.687 91.6027C133.956 88.1446 133.088 84.1098 133.088 79.4991C133.088 74.888 133.956 70.8536 135.687 67.3955C137.418 63.9373 139.73 61.0555 142.907 59.3265C146.083 57.3092 149.551 56.4447 153.301 56.4447C156.769 56.4447 160.232 57.3092 163.122 58.7501C165.689 60.0308 168.028 62.2222 169.935 64.9195C170.326 65.4764 171.096 65.6367 171.66 65.2527L182.405 57.9427C182.928 57.5859 183.088 56.8831 182.742 56.3517C180.771 53.3157 178.127 50.7531 175.251 48.6638C171.783 46.3584 168.606 44.6292 164.565 43.4766ZM257.055 45.8097L269.944 42.4226C270.708 42.221 271.459 42.7982 271.459 43.5897V114.603C271.459 115.269 270.918 115.809 270.249 115.809H257.365C256.696 115.809 256.154 115.269 256.154 114.603V46.9768C256.154 46.4286 256.527 45.9493 257.055 45.8097ZM409.073 75.7523C411.094 74.5996 413.114 74.0232 415.426 74.0232C418.025 74.0232 420.046 74.888 421.779 75.7523C423.509 76.617 424.956 78.346 426.107 80.6514C427.263 82.9567 427.841 85.5504 427.841 88.7205C427.841 91.8906 427.263 94.4839 426.107 96.7897C425.243 99.0951 423.8 100.824 421.779 101.977C420.046 103.129 417.734 103.706 415.426 103.706C413.114 103.706 410.802 103.129 409.073 101.977C407.339 100.824 405.896 99.0951 404.74 96.7897C403.585 94.4839 403.006 91.8906 403.006 88.7205C403.006 85.5504 403.585 82.9567 404.74 80.6514C405.605 78.6344 407.052 76.9049 409.073 75.7523ZM429.862 63.9371C425.821 61.6316 420.91 60.4789 415.426 60.4789C410.229 60.4789 405.318 61.6316 400.986 63.9371C396.653 66.2425 393.477 69.7007 390.878 74.0232C388.279 78.346 387.123 83.2451 387.123 88.7205C387.123 94.196 388.571 99.0951 390.878 103.418C393.19 107.741 396.653 111.199 400.986 113.504C405.318 115.809 410.229 116.962 415.426 116.962C420.623 116.962 425.529 115.809 429.862 113.504C434.195 111.199 437.371 107.741 439.97 103.418C442.569 99.0951 443.724 94.196 443.724 88.7205C443.724 83.2451 442.282 78.346 439.97 74.0232C437.658 69.7007 434.195 66.2425 429.862 63.9371ZM320.565 110.316C320.679 110.134 321.011 110.218 321.011 110.433V114.603C321.011 115.27 321.548 115.81 322.217 115.81H335.105C335.77 115.81 336.311 115.27 336.311 114.603V63.4154C336.311 62.7489 335.77 62.2086 335.105 62.2086H322.217C321.548 62.2086 321.011 62.7489 321.011 63.4154V68.0538C321.011 68.45 320.483 68.6161 320.242 68.302C319.432 67.25 318.53 66.2726 317.543 65.3785C314.366 62.2086 310.034 60.7677 304.836 60.7677C300.217 60.7677 296.176 61.9205 292.421 64.5142C288.953 66.8196 286.068 70.2777 284.047 74.6005C282.022 78.9232 281.158 83.8219 281.158 89.0094C281.158 94.1964 282.022 99.0955 284.047 103.418C286.068 107.741 288.667 110.911 292.421 113.505C295.885 116.098 300.217 117.251 304.836 117.251C310.325 117.251 314.366 115.522 317.83 113.216C319.154 112.337 320.064 111.11 320.565 110.316ZM315.231 101.689C313.21 102.842 311.19 103.418 308.878 103.418C306.57 103.418 304.55 102.842 302.525 101.689C300.795 100.537 299.352 98.8076 298.196 96.5022C297.327 94.1964 296.749 91.6031 296.749 88.721C296.749 85.8393 297.041 83.5339 298.196 81.2281C299.352 79.2112 300.795 77.4822 302.525 76.3295C304.55 75.1768 306.57 74.6005 308.878 74.6005C311.19 74.6005 313.502 75.1768 315.231 76.3295C316.965 77.4822 318.408 78.9228 319.564 81.2281C320.433 83.2456 321.011 85.8393 321.011 88.721C321.011 91.6031 320.72 94.1964 319.564 96.5022C318.408 98.8076 316.965 100.537 315.231 101.689ZM369.916 74.0237C369.698 74.0237 369.516 74.2035 369.516 74.4261V95.0607C369.516 99.9598 371.536 102.553 375.578 102.553H380.147C380.816 102.553 381.353 103.094 381.353 103.76V114.603C381.353 115.269 380.816 115.81 380.147 115.81H373.557C367.495 115.81 362.584 114.08 359.408 110.622C355.944 107.164 354.21 102.265 354.21 95.925V74.4261C354.21 74.2035 354.028 74.0237 353.805 74.0237H344.872C344.044 74.0237 343.461 73.2107 343.725 72.4278L346.933 63.026C347.102 62.537 347.561 62.2081 348.08 62.2081H353.805C354.028 62.2081 354.21 62.028 354.21 61.8058V47.3792C354.21 46.8311 354.579 46.3517 355.112 46.2121L368.505 42.6921C369.015 42.5577 369.516 42.9425 369.516 43.4701V61.8058C369.516 62.028 369.698 62.2081 369.916 62.2081H380.47C381.303 62.2081 381.885 63.0211 381.617 63.8039L378.408 73.2057C378.244 73.6949 377.78 74.0237 377.266 74.0237H369.916ZM221.043 60.4789C226.24 60.4789 230.573 61.6317 234.327 63.9371C238.078 66.2425 241.254 69.7007 243.279 74.0232C245.587 78.346 246.456 83.2451 246.456 88.7205V91.2602C246.456 91.9265 245.914 92.4669 245.245 92.4669H210.972C210.485 92.4669 210.107 92.898 210.189 93.3789C210.444 94.8214 210.799 96.088 211.222 97.0777C212.378 99.383 213.825 101.112 215.555 101.977C217.288 102.841 219.6 103.706 222.486 103.706C225.084 103.706 227.683 103.129 229.417 102.265C231.087 101.55 232.562 100.245 233.836 98.6754C234.273 98.1354 235.069 98.0241 235.611 98.462L244.394 105.567C244.899 105.976 244.991 106.712 244.581 107.215C242.119 110.219 239.161 112.507 235.479 114.08C231.438 115.809 227.105 116.674 222.486 116.674C216.997 116.674 212.091 115.521 207.759 113.216C203.426 110.91 200.249 107.452 197.942 103.129C195.63 98.8067 194.474 93.908 194.474 88.4321C194.474 82.9567 195.63 78.0581 197.942 73.7353C200.249 69.4125 203.426 66.2425 207.467 63.6489C211.513 61.6317 215.846 60.4789 221.043 60.4789ZM211.313 82.3808C210.803 82.3808 210.421 81.9158 210.544 81.423C211.049 79.3497 211.786 77.652 212.665 76.3286C214.399 73.7348 217.288 72.2942 221.043 72.2942C224.506 72.2942 227.396 73.7348 229.126 76.3286C229.99 77.6212 230.709 79.3424 231.215 81.4216C231.337 81.9153 230.951 82.3808 230.445 82.3808H211.313Z" fill="white"/>
<defs>
<radialGradient id="paint0_radial_373_2915" cx="0" cy="0" r="1" gradientUnits="userSpaceOnUse" gradientTransform="translate(72.0405 34.2025) rotate(149.841) scale(54.9059 65.7889)">
<stop offset="0.116813" stop-color="white"/>
<stop offset="0.734375" stop-color="#8F8F8F"/>
<stop offset="1" stop-color="#9D9D9D"/>
</radialGradient>
<linearGradient id="paint1_linear_373_2915" x1="54.6114" y1="65.8095" x2="54.6114" y2="134.001" gradientUnits="userSpaceOnUse">
<stop stop-color="#919191"/>
<stop offset="0.46875" stop-color="#7E7E7E"/>
<stop offset="1" stop-color="#969696"/>
</linearGradient>
<linearGradient id="paint2_linear_373_2915" x1="70.8301" y1="64.1453" x2="70.8301" y2="138.543" gradientUnits="userSpaceOnUse">
<stop stop-color="white"/>
<stop offset="0.197917" stop-color="#EDEDED"/>
<stop offset="1" stop-color="#ABABAB"/>
</linearGradient>
</defs>
</svg>
