<svg width="431" height="161" viewBox="0 0 431 161" fill="none" xmlns="http://www.w3.org/2000/svg">
<g clip-path="url(#clip0_377_2943)">
<path d="M344.218 113.724H380.175V47.0934H344.218V113.724ZM317.189 47.0772H338.503V55.6775H318.792C315.538 55.6775 312.876 56.6155 310.805 58.4875C308.73 60.3594 307.695 62.8201 307.695 65.8656C307.695 68.976 308.73 71.4692 310.805 73.3412C312.876 75.2131 315.542 76.1511 318.792 76.1511H338.503V113.724H295.477V105.107H318.033C321.539 105.107 324.397 104.125 326.595 102.155C328.796 100.19 329.897 97.6804 329.897 94.635C329.897 91.5895 328.796 89.1126 326.595 87.2081C324.393 85.3037 321.539 84.3535 318.033 84.3535L315.171 84.4022C305.966 84.4022 298.489 77.0079 298.432 67.8472L298.42 65.8372V65.7641C298.416 55.442 306.822 47.0772 317.189 47.0772ZM406.462 47.0772H427.115V55.6775H408.068C404.815 55.6775 402.153 56.6155 400.082 58.4875C398.007 60.3594 396.971 62.8201 396.971 65.8656C396.971 68.976 398.007 71.4692 400.082 73.3412C402.153 75.2131 404.819 76.1511 408.068 76.1511H427.115V94.6837C427.115 105.201 418.549 113.724 407.983 113.724H406.641H386.062V105.107H406.641C410.147 105.107 413.005 104.125 415.202 102.155C417.404 100.19 418.505 97.6804 418.505 94.635C418.505 91.5895 417.404 89.1126 415.202 87.2081C413.001 85.3037 410.147 84.4022 406.641 84.4022H404.44H387.807L387.689 65.8372V65.7641C387.689 55.442 396.095 47.0772 406.462 47.0772ZM124.388 47.0772H148.498V55.6775H125.061C120.662 55.6775 116.594 56.7739 112.863 58.9626C109.133 61.1512 106.182 64.1358 104.013 67.9121C101.844 71.6885 100.759 75.7978 100.759 80.2401C100.759 84.6824 101.844 89.1694 104.013 92.9133C106.182 96.6612 109.129 99.6255 112.863 101.814C116.594 104.003 120.662 105.099 125.061 105.099H139.313V84.3982H116.161V76.0212H148.498V113.724H124.771H124.413C105.912 113.736 90.906 98.8134 90.906 80.4026C90.906 61.9958 105.896 47.0772 124.388 47.0772ZM218.724 78.0149V113.748H210.191V78.1286C210.191 65.7316 200.093 55.6816 187.635 55.6816C175.176 55.6816 165.078 65.7316 165.078 78.1286V113.748H156.472V47.1178H187.68C204.822 47.1178 218.724 60.9523 218.724 78.0149ZM373.811 67.1893C373.811 73.5807 368.609 78.758 362.197 78.758C355.784 78.758 350.582 73.5767 350.582 67.1893C350.582 60.802 355.784 55.6207 362.197 55.6207C368.609 55.6207 373.811 60.798 373.811 67.1893ZM450.356 80.3457V80.4229C450.356 98.8255 465.346 113.724 483.838 113.724H497.989V105.107H484.067C470.173 105.107 458.942 93.7498 459.239 79.8544C459.529 66.3447 470.944 55.6816 484.523 55.6816H497.989V47.1178H483.745C465.306 47.1178 450.356 61.9958 450.356 80.3457ZM702.535 47.1178H671.328V113.724H679.934V78.1286C679.934 65.7316 690.032 55.6816 702.49 55.6816C714.949 55.6816 725.047 65.7316 725.047 78.1286V113.724H733.579V78.0149C733.583 60.9523 719.682 47.1178 702.535 47.1178ZM546.763 69.4552C546.763 71.2946 546.107 72.8498 544.802 74.1208C543.493 75.3918 541.948 76.0252 540.163 76.0252H520.268C518.417 76.0252 516.856 75.3918 515.58 74.1208C514.304 72.8539 513.668 71.2987 513.668 69.4552V47.1178H505.062V113.724H513.668V90.9683C513.668 89.1288 514.304 87.5736 515.58 86.3026C516.856 85.0357 518.417 84.3982 520.268 84.3982H540.163C541.948 84.3982 543.493 85.0316 544.802 86.3026C546.107 87.5736 546.763 89.1288 546.763 90.9683V113.724H555.275V47.1178H546.763V69.4552ZM628.298 47.1178V113.724H664.255V47.1178H628.298ZM646.276 78.758C639.859 78.758 634.661 73.5767 634.661 67.1893C634.661 60.798 639.863 55.6207 646.276 55.6207C652.693 55.6207 657.891 60.802 657.891 67.1893C657.891 73.5767 652.693 78.758 646.276 78.758ZM596.789 50.6627C595.651 48.1532 594.045 46.8944 591.962 46.8944C589.883 46.8944 588.272 48.1492 587.135 50.6627L558.467 113.724H625.171L596.789 50.6627ZM591.966 102.805C585.549 102.805 580.351 97.6236 580.351 91.2363C580.351 84.8489 585.553 79.6676 591.966 79.6676C598.383 79.6676 603.58 84.8489 603.58 91.2363C603.58 97.6236 598.378 102.805 591.966 102.805ZM288.448 63.4374C285.379 58.2926 281.237 54.2482 276.031 51.3043C270.821 48.3644 265.146 46.8904 259.006 46.8904C253.05 46.8904 247.424 48.3644 242.12 51.3043C236.817 54.2482 232.675 58.2926 229.703 63.4374C226.723 68.5862 225.239 74.1898 225.239 80.2564C225.239 86.3229 226.727 91.9306 229.703 97.0754C232.679 102.224 236.821 106.313 242.12 109.347C247.424 112.38 253.046 113.894 259.006 113.894C265.146 113.894 270.817 112.38 276.031 109.347C281.237 106.313 285.379 102.224 288.448 97.0754C291.518 91.9306 293.051 86.3189 293.051 80.2564C293.055 74.1939 291.518 68.5862 288.448 63.4374ZM259.149 92.0159C252.716 92.0159 247.502 86.8183 247.502 80.4066C247.502 73.9949 252.716 68.7973 259.149 68.7973C265.582 68.7973 270.796 73.9949 270.796 80.4066C270.796 86.8183 265.582 92.0159 259.149 92.0159Z" fill="#EBEBEB"/>
<g clip-path="url(#clip1_377_2943)">
<path d="M26.3991 84.5799C28.2958 84.5799 30.1463 83.9476 31.6421 82.7911L19.614 70.7631C16.715 74.5103 17.4089 79.9075 21.1561 82.8065C22.6673 83.9476 24.5024 84.5799 26.3991 84.5799Z" fill="#EBEBEB"/>
<path d="M62.1747 75.9907C62.1747 74.0939 61.5425 72.2435 60.3859 70.7477L48.3579 82.7757C52.1051 85.6748 57.4869 84.9809 60.3859 81.2337C61.5425 79.7379 62.1747 77.8874 62.1747 75.9907Z" fill="#EBEBEB"/>
<path d="M68.235 62.8986L62.915 68.2187C67.2019 73.3537 66.5234 81.0023 61.3883 85.2892C56.8855 89.0518 50.3472 89.0518 45.8444 85.2892L40 91.1336L34.171 85.3046C29.036 89.5915 21.3874 88.913 17.1005 83.778C13.3379 79.2752 13.3379 72.7369 17.1005 68.2341L14.371 65.5046L11.7804 62.8986C8.65 68.049 7 73.9705 7 80C7 98.2271 21.7729 113 40 113C58.2271 113 73 98.2271 73 80C73.0154 73.9705 71.35 68.049 68.235 62.8986Z" fill="#EBEBEB"/>
<path d="M63.8711 57.2238C51.3033 44.0392 30.4239 43.5458 17.2393 56.1135C16.8538 56.4836 16.4837 56.8537 16.129 57.2238C15.3117 58.0874 14.5407 58.9818 13.8159 59.9224L40 86.122L66.1841 59.9224C65.4748 58.9818 64.6883 58.0874 63.8711 57.2238ZM40 51.3178C47.7103 51.3178 54.8963 54.2939 60.2935 59.722L40 80.0154L19.7066 59.722C25.1038 54.2939 32.2897 51.3178 40 51.3178Z" fill="#EBEBEB"/>
</g>
</g>
<defs>
<clipPath id="clip0_377_2943">
<rect width="431" height="161" fill="white"/>
</clipPath>
<clipPath id="clip1_377_2943">
<rect width="66" height="66" fill="white" transform="translate(7 47)"/>
</clipPath>
</defs>
</svg>
