<svg width="564" height="161" viewBox="0 0 564 161" fill="none" xmlns="http://www.w3.org/2000/svg">
<path d="M0 31H15.7113V75.586H16.4544L23.7792 66.9873L35.2442 54.7792H53.2909L32.0595 76.4353L55.5202 109.556H36.8366L20.913 85.3525L15.7113 90.5542V109.556H0V31Z" fill="#FFFBFB"/>
<path d="M108.451 109.556C105.196 109.556 102.577 108.742 100.596 107.115C98.614 105.416 97.4462 103.01 97.0924 99.896H96.5616C95.5708 103.505 93.5892 106.23 90.6168 108.07C87.7152 109.91 84.1412 110.83 79.8949 110.83C74.5871 110.83 70.3054 109.415 67.0499 106.584C63.8652 103.682 62.2728 99.6483 62.2728 94.482C62.2728 88.7495 64.3606 84.5032 68.5361 81.7431C72.7116 78.9831 78.8333 77.603 86.9013 77.603H95.7123V74.8429C95.7123 71.5874 94.9338 69.1458 93.3769 67.5181C91.8907 65.8196 89.3429 64.9703 85.7336 64.9703C82.4073 64.9703 79.718 65.6072 77.6656 66.8811C75.6132 68.155 73.8439 69.8182 72.3577 71.8705L63.759 64.2272C65.5991 61.1133 68.4653 58.5655 72.3577 56.5839C76.321 54.5315 81.3811 53.5053 87.5382 53.5053C95.04 53.5053 100.879 55.2392 105.054 58.707C109.3 62.1041 111.424 67.2704 111.424 74.206V98.1975H117.475V109.556H108.451ZM85.8397 100.533C88.5998 100.533 90.9353 99.8606 92.8461 98.516C94.7569 97.1713 95.7123 95.2251 95.7123 92.6773V86.0956H87.3259C80.8857 86.0956 77.6656 88.2541 77.6656 92.5712V94.6943C77.6656 96.6051 78.4087 98.056 79.8949 99.0468C81.3811 100.038 83.3627 100.533 85.8397 100.533Z" fill="#FFFBFB"/>
<path d="M128.261 97.3483H140.894V66.9873H128.261V54.7792H156.605V70.2782H157.348C157.844 68.2966 158.516 66.3857 159.365 64.5457C160.285 62.6348 161.418 60.9717 162.762 59.5563C164.178 58.0701 165.876 56.9024 167.858 56.0531C169.839 55.2038 172.175 54.7792 174.864 54.7792H180.066V69.2166H168.389C164.496 69.2166 161.559 70.3843 159.578 72.7198C157.596 74.9845 156.605 77.7799 156.605 81.1062V97.3483H174.652V109.556H128.261V97.3483Z" fill="#FFFBFB"/>
<path d="M190.322 54.7792H206.033V64.758H206.776C208.121 61.5025 210.067 58.8132 212.615 56.69C215.162 54.5669 218.63 53.5053 223.018 53.5053C226.061 53.5053 228.821 54.0715 231.298 55.2038C233.846 56.3362 236.005 58.0701 237.774 60.4055C239.614 62.741 241.029 65.7134 242.02 69.3228C243.082 72.9321 243.613 77.2138 243.613 82.1678C243.613 87.1218 243.082 91.4035 242.02 95.0128C241.029 98.6221 239.614 101.595 237.774 103.93C236.005 106.265 233.846 107.999 231.298 109.132C228.821 110.264 226.061 110.83 223.018 110.83C218.63 110.83 215.162 109.804 212.615 107.752C210.067 105.629 208.121 102.904 206.776 99.5776H206.033V130.788H190.322V54.7792ZM216.224 98.6221C219.763 98.6221 222.487 97.5606 224.398 95.4374C226.309 93.2435 227.264 90.2357 227.264 86.4141V77.9215C227.264 74.0998 226.309 71.1274 224.398 69.0043C222.487 66.8104 219.763 65.7134 216.224 65.7134C213.464 65.7134 211.058 66.3857 209.005 67.7304C207.024 69.075 206.033 71.1982 206.033 74.0998V90.2357C206.033 93.1373 207.024 95.2605 209.005 96.6052C211.058 97.9498 213.464 98.6221 216.224 98.6221Z" fill="#FFFBFB"/>
<path d="M299.41 109.556C296.154 109.556 293.536 108.742 291.554 107.115C289.573 105.416 288.405 103.01 288.051 99.896H287.52C286.529 103.505 284.548 106.23 281.575 108.07C278.674 109.91 275.1 110.83 270.853 110.83C265.546 110.83 261.264 109.415 258.008 106.584C254.824 103.682 253.231 99.6483 253.231 94.482C253.231 88.7495 255.319 84.5032 259.495 81.7431C263.67 78.9831 269.792 77.603 277.86 77.603H286.671V74.8429C286.671 71.5874 285.892 69.1458 284.335 67.5181C282.849 65.8196 280.301 64.9703 276.692 64.9703C273.366 64.9703 270.677 65.6072 268.624 66.8811C266.572 68.155 264.803 69.8182 263.316 71.8705L254.718 64.2272C256.558 61.1133 259.424 58.5655 263.316 56.5839C267.28 54.5315 272.34 53.5053 278.497 53.5053C285.999 53.5053 291.837 55.2392 296.013 58.707C300.259 62.1041 302.382 67.2704 302.382 74.206V98.1975H308.433V109.556H299.41ZM276.798 100.533C279.558 100.533 281.894 99.8606 283.805 98.516C285.715 97.1713 286.671 95.2251 286.671 92.6773V86.0956H278.284C271.844 86.0956 268.624 88.2541 268.624 92.5712V94.6943C268.624 96.6051 269.367 98.056 270.853 99.0468C272.34 100.038 274.321 100.533 276.798 100.533Z" fill="#FFFBFB"/>
<path d="M347.458 109.556C341.796 109.556 337.585 108.07 334.825 105.098C332.065 102.125 330.685 98.3391 330.685 93.7389V66.9873H315.823V54.7792H325.483C327.818 54.7792 329.482 54.3192 330.472 53.3992C331.463 52.4791 331.959 50.7806 331.959 48.3036V35.4586H346.396V54.7792H367.734V66.9873H346.396V97.3483H367.734V109.556H347.458Z" fill="#FFFBFB"/>
<path d="M381.917 31H397.628V75.586H398.371L405.696 66.9873L417.161 54.7792H435.208L413.977 76.4353L437.437 109.556H418.754L402.83 85.3525L397.628 90.5542V109.556H381.917V31Z" fill="#FFFBFB"/>
<path d="M472.003 110.83C462.803 110.83 455.832 108.282 451.09 103.187C446.349 98.0914 443.978 91.1558 443.978 82.3801C443.978 77.9215 444.579 73.9229 445.782 70.3843C447.056 66.775 448.826 63.7318 451.09 61.2548C453.426 58.707 456.221 56.7962 459.477 55.5223C462.803 54.1777 466.518 53.5053 470.623 53.5053C474.728 53.5053 478.408 54.1777 481.663 55.5223C484.919 56.7962 487.679 58.6363 489.944 61.0425C492.208 63.4487 493.942 66.3857 495.145 69.8535C496.419 73.2506 497.056 77.0722 497.056 81.3185V85.9894H459.583V86.9448C459.583 90.4834 460.68 93.3497 462.874 95.5436C465.068 97.6667 468.288 98.7283 472.534 98.7283C475.789 98.7283 478.585 98.1267 480.92 96.9236C483.256 95.6497 485.273 93.9866 486.971 91.9342L495.464 101.17C493.341 103.788 490.368 106.053 486.547 107.964C482.725 109.875 477.877 110.83 472.003 110.83ZM470.729 64.758C467.332 64.758 464.608 65.8196 462.555 67.9427C460.574 69.9951 459.583 72.7906 459.583 76.3291V77.1784H481.663V76.3291C481.663 72.7198 480.673 69.8889 478.691 67.8365C476.78 65.7842 474.126 64.758 470.729 64.758Z" fill="#FFFBFB"/>
<path d="M547.97 54.7792H564L538.204 118.367C536.576 122.401 534.417 125.48 531.728 127.603C529.039 129.726 525.359 130.788 520.688 130.788H509.86V118.58H523.023L526.42 109.238L504.34 54.7792H521.219L529.18 77.8153L534.17 93.7389H535.019L539.796 77.8153L547.97 54.7792Z" fill="#FFFBFB"/>
</svg>
