<svg width="180" height="180" viewBox="0 0 180 180" fill="none" xmlns="http://www.w3.org/2000/svg">
<path d="M73.3557 60.26C73.3557 61.36 74.2557 62.26 75.3557 62.26H111.596C115.526 62.26 117.816 64.55 117.816 68.32V104.72C117.816 105.82 118.716 106.72 119.816 106.72H128.576C129.676 106.72 130.576 105.82 130.576 104.72V62.21C130.566 61.06 130.236 60.25 129.416 59.43L120.776 50.79C119.956 49.97 118.976 49.48 117.826 49.48H75.3457C74.2457 49.49 73.3457 50.39 73.3457 51.49V60.26H73.3557Z" fill="#00FF6D"/>
<path d="M50.0771 123.741L56.2713 129.935C57.0524 130.716 58.3187 130.716 59.0998 129.935L119.932 69.1025C120.713 68.3215 120.713 67.0551 119.932 66.2741L113.738 60.0798C112.957 59.2988 111.691 59.2988 110.909 60.0798L50.0771 120.912C49.296 121.693 49.296 122.96 50.0771 123.741Z" fill="#00FF6D"/>
</svg>
