<svg width="556" height="146" viewBox="0 0 556 146" fill="none" xmlns="http://www.w3.org/2000/svg">
<g clip-path="url(#clip0_591_78041)">
<path d="M0.84 18.6H31.68V23.76H19.08V60H13.44V23.76H0.84V18.6ZM37.1995 60V18.6H42.8395V35.82H63.5995V18.6H69.2395V60H63.5995V40.98H42.8395V60H37.1995ZM78.6253 60V18.6H105.625V23.76H84.2653V36.12H103.045V41.28H84.2653V54.84H106.045V60H78.6253ZM128.899 60V18.6H134.539V60H128.899ZM143.899 60V18.6H154.759L170.299 55.38H171.199V18.6H176.839V60H166.219L150.439 22.98H149.539V60H143.899ZM182.363 18.6H213.203V23.76H200.603V60H194.963V23.76H182.363V18.6ZM218.723 60V18.6H245.723V23.76H224.363V36.12H243.143V41.28H224.363V54.84H246.143V60H218.723ZM253.996 60V18.6H271.816C280.096 18.6 284.896 23.64 284.896 30.06C284.896 34.5 282.616 37.86 278.476 39.48V40.38C282.856 41.52 283.816 44.82 283.816 48.78V60H278.176V48.78C278.176 44.4 276.136 42.6 272.116 42.6H259.636V60H253.996ZM271.156 23.76H259.636V37.44H271.156C276.436 37.44 279.136 34.62 279.136 30.6C279.136 26.58 276.436 23.76 271.156 23.76ZM292.785 60V18.6H303.645L319.185 55.38H320.085V18.6H325.725V60H315.105L299.325 22.98H298.425V60H292.785ZM335.09 60V18.6H362.09V23.76H340.73V36.12H359.51V41.28H340.73V54.84H362.51V60H335.09ZM366.524 18.6H397.364V23.76H384.764V60H379.124V23.76H366.524V18.6ZM403.553 53.46V54.78L398.333 67.62H394.373L397.913 53.46H403.553Z" fill="white"/>
<path d="M223.46 122.373C223.46 126.133 222.52 128.873 220.64 130.593C218.76 132.273 215.88 133.113 212 133.113H204.32V127.953H211.7C213.86 127.953 215.42 127.513 216.38 126.633C217.34 125.713 217.82 124.193 217.82 122.073V91.7127H223.46V122.373ZM231.766 91.7127H237.406V117.393C237.406 121.073 238.306 123.913 240.106 125.913C241.946 127.913 244.506 128.913 247.786 128.913C251.066 128.913 253.606 127.913 255.406 125.913C257.246 123.913 258.166 121.073 258.166 117.393V91.7127H263.806V117.213C263.806 122.613 262.406 126.793 259.606 129.753C256.806 132.713 252.866 134.193 247.786 134.193C242.706 134.193 238.766 132.713 235.966 129.753C233.166 126.793 231.766 122.613 231.766 117.213V91.7127ZM275.636 119.793C276.076 122.793 277.276 125.073 279.236 126.633C281.196 128.153 283.756 128.913 286.916 128.913C289.556 128.913 291.756 128.353 293.516 127.233C295.276 126.113 296.156 124.493 296.156 122.373C296.156 119.293 294.216 117.193 290.336 116.073L281.276 113.493C278.316 112.653 275.936 111.253 274.136 109.293C272.376 107.333 271.496 104.973 271.496 102.213C271.496 99.9727 272.116 97.9727 273.356 96.2127C274.596 94.4527 276.296 93.0927 278.456 92.1327C280.616 91.1327 283.056 90.6327 285.776 90.6327C289.696 90.6327 293.016 91.6127 295.736 93.5727C298.496 95.5327 300.276 98.3727 301.076 102.093V104.193H295.736C295.336 101.553 294.276 99.5127 292.556 98.0727C290.876 96.6327 288.616 95.9127 285.776 95.9127C283.336 95.9127 281.316 96.4527 279.716 97.5327C278.116 98.6127 277.316 100.093 277.316 101.973C277.316 103.413 277.816 104.673 278.816 105.753C279.816 106.793 281.256 107.573 283.136 108.093L292.196 110.673C295.196 111.553 297.576 112.953 299.336 114.873C301.096 116.753 301.976 119.193 301.976 122.193C301.976 125.913 300.576 128.853 297.776 131.013C295.016 133.133 291.396 134.193 286.916 134.193C282.356 134.193 278.616 133.113 275.696 130.953C272.816 128.793 270.916 125.773 269.996 121.893V119.793H275.636ZM303.358 91.7127H334.198V96.8727H321.598V133.113H315.958V96.8727H303.358V91.7127Z" fill="white"/>
<path d="M372.657 90.6327C376.537 90.6327 379.997 91.5727 383.037 93.4527C386.077 95.3327 388.457 97.9327 390.177 101.253C391.897 104.533 392.757 108.253 392.757 112.413C392.757 116.573 391.897 120.313 390.177 123.633C388.457 126.913 386.077 129.493 383.037 131.373C379.997 133.253 376.537 134.193 372.657 134.193C368.777 134.193 365.317 133.253 362.277 131.373C359.237 129.493 356.857 126.913 355.137 123.633C353.417 120.313 352.557 116.573 352.557 112.413C352.557 108.253 353.417 104.533 355.137 101.253C356.857 97.9327 359.237 95.3327 362.277 93.4527C365.317 91.5727 368.777 90.6327 372.657 90.6327ZM372.657 95.9127C369.897 95.9127 367.437 96.6327 365.277 98.0727C363.117 99.4727 361.417 101.433 360.177 103.953C358.977 106.433 358.377 109.253 358.377 112.413C358.377 115.573 358.977 118.413 360.177 120.933C361.417 123.413 363.117 125.373 365.277 126.813C367.437 128.213 369.897 128.913 372.657 128.913C375.417 128.913 377.877 128.213 380.037 126.813C382.197 125.373 383.877 123.413 385.077 120.933C386.317 118.413 386.937 115.573 386.937 112.413C386.937 109.253 386.317 106.433 385.077 103.953C383.877 101.433 382.197 99.4727 380.037 98.0727C377.877 96.6327 375.417 95.9127 372.657 95.9127ZM396.553 91.7127H401.953L408.313 121.653C408.833 124.213 409.213 126.573 409.453 128.733H410.413C410.653 126.493 411.053 124.153 411.613 121.713L418.393 93.7527H427.033L433.513 121.653C434.073 124.173 434.473 126.533 434.713 128.733H435.673C435.833 127.173 436.233 124.793 436.873 121.593L443.173 91.7127H448.513V93.8127L439.873 133.113H430.633L424.393 106.053C423.833 103.733 423.413 101.353 423.133 98.9127H422.173C421.893 101.273 421.473 103.593 420.913 105.873L414.433 133.113H405.313L396.553 93.8127V91.7127ZM455.381 133.113V91.7127H466.241L481.781 128.493H482.681V91.7127H488.321V133.113H477.701L461.921 96.0927H461.021V133.113H455.381ZM512.686 133.113V91.7127H518.326V133.113H512.686ZM523.846 91.7127H554.686V96.8727H542.086V133.113H536.446V96.8727H523.846V91.7127Z" fill="#12FF80"/>
</g>
<defs>
<clipPath id="clip0_591_78041">
<rect width="556" height="146" fill="white"/>
</clipPath>
</defs>
</svg>
