<svg width="692" height="134" viewBox="0 0 692 134" fill="none" xmlns="http://www.w3.org/2000/svg">
<g clip-path="url(#clip0_266_99)">
<path d="M61.4862 62.2039C57.0148 60.4193 51.5548 58.9314 45.106 57.7358H44.9679C38.7018 56.6376 33.9988 55.6279 30.8679 54.7113C27.7326 53.799 25.2698 52.5591 23.475 51.0003C21.6802 49.4416 20.7806 47.2894 20.7806 44.5395C20.7806 40.5097 22.2993 37.4409 25.3411 35.333C28.3828 33.2252 32.3911 32.1712 37.3657 32.1712C42.8035 32.1712 47.1992 33.544 50.5661 36.294C53.5856 38.765 55.4338 41.9002 56.1152 45.6997C56.2488 46.4569 56.8946 47.0193 57.6695 47.0237L72.9631 47.1389C73.9028 47.1477 74.651 46.3462 74.5574 45.4163C74.0453 40.3326 72.3574 35.7139 69.5026 31.5513C66.3228 26.9237 61.9449 23.3279 56.3735 20.7639C50.7976 18.2 44.4647 16.9158 37.3701 16.9158C30.6453 16.9158 24.5839 18.1512 19.1951 20.6267C13.8063 23.1021 9.61105 26.534 6.61825 30.9357C3.621 35.333 2.1246 40.2839 2.1246 45.7794C2.1246 51.8284 3.46067 56.6818 6.13281 60.3485C8.80495 64.0151 12.3055 66.7872 16.6388 68.6648C20.9676 70.5424 26.1739 72.0303 32.2574 73.133L32.9477 73.2702C39.3965 74.4614 44.2108 75.5154 47.3907 76.432C50.5705 77.3487 53.0779 78.6329 54.9217 80.2802C56.7654 81.932 57.6873 84.1771 57.6873 87.0157C57.6873 91.0498 56.0306 94.2072 52.7127 96.4966C49.3948 98.7861 45.1104 99.933 39.8597 99.933C33.5935 99.933 28.5254 98.3521 24.6552 95.1903C21.1324 92.3119 19.0615 88.6231 18.438 84.1151C18.3311 83.3357 17.6809 82.7424 16.8882 82.7335L1.61244 82.5032C0.681643 82.4899 -0.0665562 83.2693 0.00470092 84.1904C0.436697 89.7346 2.1825 94.7297 5.23319 99.1758C8.59563 104.078 13.2273 107.926 19.1239 110.72C25.0204 113.515 31.7943 114.914 39.441 114.914C46.5356 114.914 52.8953 113.63 58.5157 111.066C64.1361 108.502 68.5362 104.95 71.7161 100.416C74.8959 95.8811 76.4858 90.7753 76.4858 85.0938C76.4858 79.0447 75.1008 74.1692 72.3396 70.4583C69.5739 66.7474 65.9576 63.9974 61.4907 62.2128L61.4862 62.2039Z" fill="white"/>
<path d="M155.413 99.2417H153.026C151.645 99.2417 150.559 98.8785 149.779 98.1434C148.996 97.4128 148.604 96.2216 148.604 94.5698V68.3189C148.604 59.9804 145.932 53.6347 140.587 49.2861C135.243 44.9375 128.95 42.7189 119.09 42.7189C109.782 42.7189 102.509 44.7294 96.7998 48.6705C91.5936 52.2619 88.4538 57.1817 87.3805 63.4345C87.2157 64.4043 87.9506 65.2988 88.9437 65.2988H102.99C103.694 65.2988 104.326 64.8382 104.513 64.1651C105.155 61.8491 106.571 59.9627 108.758 58.4969C111.292 56.8009 114.302 55.9551 118.266 55.9551C125.739 55.9551 131.057 60.5384 131.057 67.3624V69.4968C131.057 70.3692 130.344 71.0733 129.471 71.0733H116.747C106.428 71.0733 98.5946 73.0881 93.2503 77.1179C87.906 81.1521 85.2339 86.8779 85.2339 94.2952C85.2339 100.712 87.6744 105.751 92.56 109.413C96.2253 112.163 100.603 113.749 105.115 114.444C108.562 114.975 112.098 115.17 115.554 114.617C119.17 114.041 122.109 112.558 125.049 110.445C127.69 108.55 129.894 106.119 131.907 103.152C132.887 101.478 135.461 102.147 135.461 104.086V106.415C135.461 110.649 138.908 114.085 143.17 114.085H155.422C156.299 114.085 157.008 113.377 157.008 112.509V100.823C157.008 99.9502 156.295 99.2461 155.422 99.2461L155.413 99.2417ZM131.048 85.0844C131.048 88.4765 130.331 91.4301 128.906 93.9498C125.913 99.2328 120.56 101.987 114.529 101.987C111.025 101.987 108.214 101.164 106.099 99.5162C103.979 97.8645 102.919 95.668 102.919 92.9181C102.919 89.805 104.095 87.4004 106.442 85.7044C108.793 84.0127 112.129 83.1625 116.462 83.1625H129.462C130.34 83.1625 131.048 83.871 131.048 84.739V85.0844Z" fill="white"/>
<path d="M206.618 17.9211L188.341 17.9211C178.699 17.9211 170.878 25.6928 170.878 35.2844V42.91C170.878 43.7823 170.166 44.4864 169.293 44.4864H158.858C157.981 44.4864 157.273 45.195 157.273 46.0629V57.8865C157.273 58.7588 157.985 59.4629 158.858 59.4629H169.293C170.17 59.4629 170.878 60.1715 170.878 61.0394L170.878 112.501C170.878 113.373 171.591 114.077 172.464 114.077H186.706C187.584 114.077 188.292 113.369 188.292 112.501V61.0394C188.292 60.167 189.004 59.4629 189.877 59.4629H206.471C207.349 59.4629 208.057 58.7544 208.057 57.8865V46.0629C208.057 45.1905 207.344 44.4864 206.471 44.4864L189.877 44.4864C189 44.4864 188.292 43.7779 188.292 42.91V36.055C188.292 34.3102 189.712 32.8976 191.467 32.8976H206.614C207.491 32.8976 208.199 32.1891 208.199 31.3211V19.4976C208.199 18.6252 207.487 17.9211 206.614 17.9211H206.618Z" fill="white"/>
<path d="M276.393 58.6966C273.307 53.5686 269.089 49.6274 263.745 46.8775C258.401 44.1275 252.224 42.7149 245.227 42.7149C238.231 42.7149 232.187 44.2426 226.843 47.2229C221.499 50.2031 217.352 54.4144 214.404 59.8656C211.456 65.3169 209.982 71.7069 209.982 79.0357C209.982 86.3646 211.505 92.4845 214.542 97.9313C217.584 103.382 221.935 107.576 227.604 110.508C233.269 113.444 239.927 114.905 247.579 114.905C253.475 114.905 258.753 113.829 263.407 111.677C268.056 109.525 271.815 106.571 274.67 102.811C277.115 99.5963 278.785 96.0758 279.676 92.2498C279.907 91.2578 279.155 90.3057 278.13 90.3057L263.821 90.3057C263.135 90.3057 262.534 90.7486 262.316 91.3907C261.309 94.3532 259.528 96.6913 256.976 98.4139C254.117 100.336 250.572 101.301 246.332 101.301C242.831 101.301 239.767 100.571 237.14 99.1048C234.512 97.639 232.441 95.5798 230.918 92.9184C230.317 91.8689 229.827 90.7619 229.435 89.6194C229.016 88.3927 228.713 87.1262 228.504 85.8464C228.433 85.3992 228.366 84.9475 228.313 84.4958C228.206 83.5659 228.949 82.7511 229.894 82.7511L279.235 82.7511C280.036 82.7511 280.722 82.1621 280.811 81.3694C280.878 80.7893 280.927 80.1959 280.949 79.5893C280.994 78.491 281.016 77.4814 281.016 76.5647C281.016 69.785 279.471 63.829 276.384 58.6966H276.393ZM261.567 70.7902H230.669C229.653 70.7902 228.892 69.8559 229.114 68.8728C229.609 66.7162 230.464 64.7678 231.679 63.0274C233.247 60.7823 235.274 59.0641 237.759 57.8729C240.248 56.6817 242.965 56.0883 245.913 56.0883C250.705 56.0883 254.669 57.3725 257.8 59.9365C260.485 62.1374 262.262 65.1132 263.117 68.8684C263.344 69.8559 262.583 70.7947 261.567 70.7947V70.7902Z" fill="white"/>
<path d="M313.315 20.9235V113.958C313.315 116.185 315.132 117.992 317.372 117.992H323.62C326.818 117.992 329.414 120.569 329.414 123.753V129.961C329.414 132.189 331.231 133.996 333.472 133.996H345.652C347.892 133.996 349.709 132.189 349.709 129.961V121.313C349.709 119.086 347.892 117.279 345.652 117.279H335.921C332.723 117.279 330.127 114.702 330.127 111.518V23.3591C330.127 20.1796 332.719 17.5979 335.921 17.5979H345.648C347.888 17.5979 349.705 15.7911 349.705 13.5637V4.91967C349.705 2.69224 347.888 0.885498 345.648 0.885498L333.467 0.885498C331.227 0.885498 329.41 2.69224 329.41 4.91967V11.1281C329.41 14.3077 326.818 16.8894 323.616 16.8894H317.367C315.127 16.8894 313.31 18.6961 313.31 20.9235H313.315Z" fill="white"/>
<path d="M691.759 113.958V20.9235C691.759 18.6961 689.942 16.8894 687.702 16.8894H681.454C678.256 16.8894 675.66 14.3121 675.66 11.1281V4.91967C675.66 2.69224 673.843 0.885498 671.602 0.885498L659.422 0.885498C657.182 0.885498 655.365 2.69224 655.365 4.91967V13.5637C655.365 15.7911 657.182 17.5979 659.422 17.5979L669.153 17.5979C672.351 17.5979 674.947 20.1751 674.947 23.3591V111.522C674.947 114.701 672.355 117.283 669.153 117.283H659.426C657.186 117.283 655.369 119.09 655.369 121.317V129.966C655.369 132.193 657.186 134 659.426 134H671.607C673.847 134 675.664 132.193 675.664 129.966V123.757C675.664 120.578 678.256 117.996 681.458 117.996H687.707C689.947 117.996 691.764 116.189 691.764 113.962L691.759 113.958Z" fill="white"/>
<path d="M439.488 47.9657V54.5681H421.351C418.654 41.4978 409.165 32.6468 395.563 32.6468C377.996 32.6468 365.525 47.261 365.525 66.9382C365.525 86.6154 377.996 101.23 395.563 101.23C409.305 101.23 418.939 92.0958 421.632 79.0209H439.908V85.6279C434.383 104.744 418.088 117.953 395.703 117.953C366.937 117.953 346.818 96.3103 346.818 66.9382C346.818 37.5661 366.937 15.923 395.558 15.923C417.803 15.923 433.953 28.5713 439.483 47.9657H439.488Z" fill="white"/>
<path d="M547.321 66.9429C547.321 96.315 527.234 117.958 498.233 117.958C469.231 117.958 449.144 96.315 449.144 66.9429C449.144 37.5708 469.231 15.923 498.233 15.923C527.234 15.923 547.321 37.5662 547.321 66.9429ZM467.957 66.9429C467.957 86.6201 480.549 101.234 498.233 101.234C515.916 101.234 528.508 86.6201 528.508 66.9429C528.508 47.2657 515.916 32.6515 498.233 32.6515C480.549 32.6515 467.957 47.2657 467.957 66.9429Z" fill="white"/>
<path d="M560.482 19.1647L590.617 19.1647L623.016 97.0252H625.42V19.1647L642.964 19.1647V116.137H613.253L580.429 37.9935H578.025V116.137H560.482V19.1647Z" fill="white"/>
</g>
<defs>
<clipPath id="clip0_266_99">
<rect width="691.764" height="133.115" fill="white" transform="translate(0 0.885498)"/>
</clipPath>
</defs>
</svg>
