<svg width="871" height="354" viewBox="0 0 871 354" fill="none" xmlns="http://www.w3.org/2000/svg">
<g clip-path="url(#clip0_635_94)">
<path d="M788 171.69C788 125.2 824.9 87.35 871 85.77V40C871 17.91 853.09 0 831 0H580.53L548.58 31.95C544.68 35.86 538.34 35.86 534.44 31.95L502.49 0H40C17.91 0 0 17.91 0 40V85.69C47.5 85.69 86 124.19 86 171.69C86 219.19 47.5 257.69 0 257.69V314C0 336.09 17.91 354 40 354H491.79C492.15 353.46 492.58 352.93 493.07 352.44L534.44 311.07C538.34 307.16 544.68 307.16 548.58 311.07L589.95 352.44C590.44 352.93 590.87 353.46 591.23 354H831C853.09 354 871 336.09 871 314V257.62C824.9 256.04 788 218.19 788 171.7V171.69Z" fill="#12FF80"/>
</g>
<defs>
<clipPath id="clip0_635_94">
<rect width="871" height="354" fill="white"/>
</clipPath>
</defs>
</svg>
