<svg width="174" height="34" viewBox="0 0 174 34" fill="none" xmlns="http://www.w3.org/2000/svg">
<g clip-path="url(#clip0_266_91)">
<path d="M15.4657 15.6823C14.341 15.2334 12.9676 14.8591 11.3456 14.5584H11.3108C9.73469 14.2822 8.55175 14.0282 7.76424 13.7976C6.97561 13.5682 6.35614 13.2563 5.90469 12.8642C5.45325 12.4721 5.22696 11.9308 5.22696 11.2391C5.22696 10.2255 5.60896 9.4536 6.37406 8.92341C7.13916 8.39322 8.14735 8.12812 9.39863 8.12812C10.7664 8.12812 11.8721 8.47341 12.7189 9.16512C13.4784 9.78665 13.9433 10.5753 14.1147 11.5309C14.1483 11.7214 14.3108 11.8629 14.5057 11.864L18.3525 11.8929C18.5888 11.8952 18.777 11.6936 18.7535 11.4597C18.6247 10.181 18.2001 9.0192 17.4821 7.97218C16.6822 6.8082 15.5811 5.90375 14.1797 5.25883C12.7772 4.61391 11.1842 4.29089 9.39975 4.29089C7.70823 4.29089 6.18362 4.60166 4.82817 5.2243C3.47271 5.84695 2.41748 6.71018 1.6647 7.81735C0.910793 8.92341 0.534403 10.1687 0.534403 11.551C0.534403 13.0725 0.870466 14.2933 1.54259 15.2156C2.21472 16.1378 3.0952 16.8351 4.18517 17.3074C5.27401 17.7797 6.58354 18.1539 8.11375 18.4313L8.28738 18.4658C9.90944 18.7654 11.1204 19.0305 11.9202 19.2611C12.7201 19.4917 13.3507 19.8147 13.8145 20.229C14.2783 20.6445 14.5101 21.2092 14.5101 21.9232C14.5101 22.9379 14.0934 23.7321 13.2589 24.308C12.4243 24.8838 11.3467 25.1723 10.0259 25.1723C8.44981 25.1723 7.17501 24.7747 6.20155 23.9794C5.31546 23.2554 4.79456 22.3275 4.63773 21.1936C4.61085 20.9976 4.4473 20.8483 4.2479 20.8461L0.405578 20.7882C0.171454 20.7848 -0.0167409 20.9809 0.00118243 21.2126C0.109843 22.6071 0.548965 23.8635 1.31631 24.9818C2.16207 26.2149 3.32709 27.1828 4.81025 27.8857C6.29341 28.5885 7.99724 28.9405 9.92065 28.9405C11.7051 28.9405 13.3048 28.6175 14.7185 27.9725C16.1322 27.3276 17.239 26.4343 18.0388 25.2937C18.8386 24.1531 19.2386 22.8689 19.2386 21.4398C19.2386 19.9183 18.8902 18.6919 18.1956 17.7585C17.5 16.8251 16.5904 16.1334 15.4668 15.6845L15.4657 15.6823Z" fill="white"/>
<path d="M39.0912 24.9984H38.4908C38.1435 24.9984 37.8702 24.9071 37.6742 24.7222C37.477 24.5384 37.3784 24.2388 37.3784 23.8233V17.2204C37.3784 15.123 36.7063 13.5268 35.3621 12.433C34.0178 11.3392 32.4349 10.7812 29.9548 10.7812C27.6136 10.7812 25.7843 11.2869 24.3482 12.2782C23.0386 13.1815 22.2489 14.419 21.9789 15.9918C21.9375 16.2357 22.1223 16.4607 22.3721 16.4607H25.9052C26.0822 16.4607 26.2413 16.3449 26.2884 16.1756C26.4497 15.593 26.8059 15.1185 27.3559 14.7498C27.9933 14.3232 28.7506 14.1105 29.7476 14.1105C31.6273 14.1105 32.9648 15.2633 32.9648 16.9798V17.5167C32.9648 17.7361 32.7856 17.9132 32.566 17.9132H29.3656C26.77 17.9132 24.7996 18.42 23.4553 19.4336C22.1111 20.4483 21.439 21.8885 21.439 23.7542C21.439 25.3682 22.0528 26.6358 23.2817 27.5569C24.2036 28.2486 25.3048 28.6474 26.4396 28.8223C27.3066 28.9559 28.1961 29.0049 29.0654 28.8657C29.975 28.7209 30.7143 28.3478 31.4536 27.8165C32.1179 27.3397 32.6724 26.7282 33.1788 25.9819C33.4252 25.5609 34.0727 25.7291 34.0727 26.217V26.8029C34.0727 27.8677 34.9397 28.732 36.0118 28.732H39.0935C39.3142 28.732 39.4923 28.5538 39.4923 28.3355V25.3961C39.4923 25.1766 39.313 24.9995 39.0935 24.9995L39.0912 24.9984ZM32.9626 21.4374C32.9626 22.2906 32.7822 23.0336 32.4237 23.6674C31.671 24.9962 30.3245 25.689 28.8077 25.689C27.9261 25.689 27.2193 25.4818 26.6872 25.0675C26.1539 24.652 25.8873 24.0995 25.8873 23.4078C25.8873 22.6248 26.1831 22.02 26.7734 21.5934C27.3649 21.1679 28.2039 20.954 29.2939 20.954H32.5638C32.7845 20.954 32.9626 21.1322 32.9626 21.3505V21.4374Z" fill="white"/>
<path d="M51.9708 4.54376L47.3734 4.54376C44.9482 4.54376 42.9811 6.49857 42.9811 8.91118V10.8292C42.9811 11.0487 42.8018 11.2258 42.5823 11.2258H39.9576C39.737 11.2258 39.5588 11.404 39.5588 11.6223V14.5963C39.5588 14.8157 39.7381 14.9928 39.9576 14.9928H42.5823C42.803 14.9928 42.9811 15.171 42.9811 15.3893L42.9811 28.3334C42.9811 28.5529 43.1603 28.73 43.3799 28.73H46.9623C47.183 28.73 47.3611 28.5518 47.3611 28.3334V15.3893C47.3611 15.1699 47.5403 14.9928 47.7599 14.9928H51.9338C52.1545 14.9928 52.3326 14.8146 52.3326 14.5963V11.6223C52.3326 11.4029 52.1534 11.2258 51.9338 11.2258L47.7599 11.2258C47.5392 11.2258 47.3611 11.0476 47.3611 10.8292V9.10499C47.3611 8.66613 47.7185 8.31081 48.1598 8.31081H51.9697C52.1903 8.31081 52.3684 8.1326 52.3684 7.91428V4.94029C52.3684 4.72086 52.1892 4.54376 51.9697 4.54376H51.9708Z" fill="white"/>
<path d="M69.5215 14.8001C68.7452 13.5102 67.6843 12.5189 66.3401 11.8272C64.9958 11.1355 63.4421 10.7802 61.6822 10.7802C59.9224 10.7802 58.4023 11.1645 57.058 11.9141C55.7138 12.6637 54.6708 13.723 53.9293 15.0941C53.1877 16.4653 52.8169 18.0726 52.8169 19.916C52.8169 21.7594 53.2 23.2988 53.964 24.6688C54.7291 26.04 55.8235 27.0948 57.2496 27.8322C58.6745 28.5706 60.3492 28.9382 62.2737 28.9382C63.7569 28.9382 65.0843 28.6676 66.2549 28.1262C67.4244 27.5849 68.3699 26.8419 69.088 25.8963C69.7029 25.0876 70.123 24.2021 70.3471 23.2397C70.4053 22.9902 70.216 22.7508 69.9584 22.7508L66.3591 22.7508C66.1866 22.7508 66.0354 22.8622 65.9805 23.0237C65.7273 23.7688 65.2792 24.3569 64.6374 24.7902C63.9182 25.2736 63.0265 25.5165 61.9601 25.5165C61.0796 25.5165 60.3089 25.3327 59.6479 24.964C58.987 24.5953 58.4661 24.0774 58.083 23.4079C57.9318 23.144 57.8086 22.8655 57.71 22.5781C57.6047 22.2696 57.5285 21.951 57.4759 21.6291C57.4579 21.5166 57.4411 21.403 57.4277 21.2894C57.4008 21.0555 57.5879 20.8505 57.8254 20.8505L70.2362 20.8505C70.4378 20.8505 70.6103 20.7024 70.6327 20.503C70.6495 20.3571 70.6618 20.2078 70.6674 20.0552C70.6786 19.779 70.6843 19.525 70.6843 19.2945C70.6843 17.5892 70.2955 16.091 69.5192 14.8001H69.5215ZM65.7923 17.842H58.0203C57.7649 17.842 57.5733 17.607 57.6293 17.3597C57.7537 16.8173 57.9687 16.3272 58.2746 15.8894C58.6689 15.3247 59.1786 14.8925 59.8036 14.5929C60.4298 14.2933 61.1132 14.144 61.8548 14.144C63.0601 14.144 64.0571 14.467 64.8446 15.112C65.5201 15.6655 65.967 16.4141 66.1821 17.3586C66.2393 17.607 66.0477 17.8431 65.7923 17.8431V17.842Z" fill="white"/>
<path d="M78.8085 5.29898V28.6999C78.8085 29.2602 79.2655 29.7146 79.829 29.7146H81.4007C82.205 29.7146 82.8581 30.3629 82.8581 31.1638V32.7254C82.8581 33.2857 83.3151 33.7401 83.8786 33.7401H86.9423C87.5058 33.7401 87.9628 33.2857 87.9628 32.7254V30.55C87.9628 29.9898 87.5058 29.5353 86.9423 29.5353H84.4947C83.6904 29.5353 83.0373 28.887 83.0373 28.0862V5.91159C83.0373 5.11185 83.6893 4.46247 84.4947 4.46247H86.9412C87.5047 4.46247 87.9617 4.00802 87.9617 3.44775V1.27351C87.9617 0.713241 87.5047 0.258789 86.9412 0.258789L83.8774 0.258789C83.314 0.258789 82.8569 0.713241 82.8569 1.27351V2.83513C82.8569 3.63488 82.205 4.28426 81.3995 4.28426H79.8279C79.2644 4.28426 78.8074 4.73871 78.8074 5.29898H78.8085Z" fill="white"/>
<path d="M173.999 28.6999V5.29898C173.999 4.73871 173.542 4.28426 172.978 4.28426H171.407C170.602 4.28426 169.949 3.63599 169.949 2.83513V1.27351C169.949 0.713241 169.492 0.258789 168.929 0.258789L165.865 0.258789C165.302 0.258789 164.844 0.713241 164.844 1.27351V3.44775C164.844 4.00802 165.302 4.46247 165.865 4.46247L168.313 4.46247C169.117 4.46247 169.77 5.11073 169.77 5.91159V28.0873C169.77 28.887 169.118 29.5364 168.313 29.5364H165.866C165.303 29.5364 164.846 29.9909 164.846 30.5511V32.7265C164.846 33.2868 165.303 33.7412 165.866 33.7412H168.93C169.493 33.7412 169.95 33.2868 169.95 32.7265V31.1649C169.95 30.3651 170.602 29.7158 171.408 29.7158H172.979C173.543 29.7158 174 29.2613 174 28.701L173.999 28.6999Z" fill="white"/>
<path d="M110.545 12.1009V13.7616H105.983C105.305 10.474 102.918 8.24772 99.4963 8.24772C95.0779 8.24772 91.941 11.9236 91.941 16.8731C91.941 21.8225 95.0779 25.4984 99.4963 25.4984C102.953 25.4984 105.376 23.201 106.054 19.9122H110.651V21.5741C109.261 26.3824 105.162 29.705 99.5316 29.705C92.296 29.705 87.2356 24.2611 87.2356 16.8731C87.2356 9.48508 92.296 4.04117 99.4952 4.04117C105.091 4.04117 109.153 7.22261 110.544 12.1009H110.545Z" fill="white"/>
<path d="M137.668 16.8743C137.668 24.2623 132.616 29.7062 125.321 29.7062C118.026 29.7062 112.974 24.2623 112.974 16.8743C112.974 9.48628 118.026 4.0412 125.321 4.0412C132.616 4.0412 137.668 9.48511 137.668 16.8743ZM117.706 16.8743C117.706 21.8237 120.873 25.4996 125.321 25.4996C129.769 25.4996 132.936 21.8237 132.936 16.8743C132.936 11.9248 129.769 8.24892 125.321 8.24892C120.873 8.24892 117.706 11.9248 117.706 16.8743Z" fill="white"/>
<path d="M140.979 4.85657L148.559 4.85657L156.708 24.4409H157.313V4.85657L161.726 4.85657V29.248H154.252L145.996 9.59258H145.392V29.248H140.979V4.85657Z" fill="white"/>
</g>
<defs>
<clipPath id="clip0_266_91">
<rect width="174" height="33.4824" fill="white" transform="translate(0 0.258789)"/>
</clipPath>
</defs>
</svg>
