<svg width="526" height="217" viewBox="0 0 526 217" fill="none" xmlns="http://www.w3.org/2000/svg">
<g clip-path="url(#clip0_591_32044)">
<path d="M2.376 24V22.248H6.192V8.952H2.376V7.2H12.024V8.952H8.208V22.248H12.024V24H2.376ZM16.5746 24V7.2H27.0626V9.072H18.5906V14.928H25.8386V16.728H18.5906V24H16.5746ZM37.1333 28.44C36.3013 27.512 35.5253 26.472 34.8053 25.32C34.1013 24.184 33.5333 22.896 33.1013 21.456C32.6693 20 32.4533 18.344 32.4533 16.488C32.4533 14.632 32.6693 12.984 33.1013 11.544C33.5333 10.088 34.1013 8.792 34.8053 7.656C35.5253 6.504 36.3013 5.464 37.1333 4.536H39.2693V4.752C38.3093 5.792 37.4693 6.904 36.7493 8.088C36.0293 9.256 35.4693 10.528 35.0693 11.904C34.6693 13.28 34.4693 14.808 34.4693 16.488C34.4693 18.168 34.6693 19.696 35.0693 21.072C35.4693 22.448 36.0293 23.72 36.7493 24.888C37.4693 26.072 38.3093 27.184 39.2693 28.224V28.44H37.1333ZM43.9639 24L49.2199 7.2H51.5479L56.7799 24H54.5719L53.3479 19.824H47.3959L46.1719 24H43.9639ZM50.3239 10.032L47.8999 18.144H52.8439L50.4199 10.032H50.3239ZM63.7545 24V9.024H59.2425V7.2H70.2825V9.024H65.7705V24H63.7545ZM78.1451 24V9.024H73.6331V7.2H84.6731V9.024H80.1611V24H78.1451ZM88.4078 24V7.2H98.8958V9.024H90.4238V14.616H98.1758V16.44H90.4238V22.176H98.8958V24H88.4078ZM102.102 24V7.2H104.166L111.798 20.472V7.2H113.79V24H111.702L104.07 10.728V24H102.102ZM116.709 24V7.2H120.237C122.989 7.2 125.021 7.952 126.333 9.456C127.661 10.96 128.325 13.008 128.325 15.6C128.325 18.192 127.661 20.24 126.333 21.744C125.021 23.248 122.989 24 120.237 24H116.709ZM118.725 22.152H120.189C121.661 22.152 122.837 21.88 123.717 21.336C124.613 20.792 125.261 20.032 125.661 19.056C126.061 18.08 126.261 16.928 126.261 15.6C126.261 14.272 126.061 13.12 125.661 12.144C125.261 11.168 124.613 10.408 123.717 9.864C122.837 9.32 121.661 9.048 120.189 9.048H118.725V22.152ZM131.58 24V7.2H142.068V9.024H133.596V14.616H141.348V16.44H133.596V22.176H142.068V24H131.58ZM145.97 24V7.2H156.458V9.024H147.986V14.616H155.738V16.44H147.986V22.176H156.458V24H145.97ZM174.488 13.56V11.736H185.288V13.56H174.488ZM174.488 19.464V17.64H185.288V19.464H174.488ZM188.878 13.56V11.736H199.678V13.56H188.878ZM188.878 19.464V17.64H199.678V19.464H188.878Z" fill="white"/>
<path d="M230.2 24.288C228.84 24.288 227.672 23.928 226.696 23.208C225.72 22.488 224.968 21.48 224.44 20.184C223.928 18.872 223.672 17.344 223.672 15.6C223.672 13.856 223.928 12.336 224.44 11.04C224.968 9.728 225.72 8.712 226.696 7.992C227.672 7.272 228.84 6.912 230.2 6.912C231.56 6.912 232.728 7.272 233.704 7.992C234.68 8.712 235.424 9.728 235.936 11.04C236.464 12.336 236.728 13.856 236.728 15.6C236.728 17.344 236.464 18.872 235.936 20.184C235.424 21.48 234.68 22.488 233.704 23.208C232.728 23.928 231.56 24.288 230.2 24.288ZM230.2 22.392C231.528 22.392 232.6 21.8 233.416 20.616C234.248 19.432 234.664 17.76 234.664 15.6C234.664 13.44 234.248 11.768 233.416 10.584C232.6 9.4 231.528 8.808 230.2 8.808C228.856 8.808 227.776 9.4 226.96 10.584C226.144 11.768 225.736 13.44 225.736 15.6C225.736 17.76 226.144 19.432 226.96 20.616C227.776 21.8 228.856 22.392 230.2 22.392ZM240.007 24L237.439 7.2H239.479L241.183 20.16L243.559 7.2H245.623L247.999 20.16L249.703 7.2H251.743L249.175 24H246.871L244.591 11.088L242.311 24H240.007ZM253.149 24V7.2H255.213L262.845 20.472V7.2H264.837V24H262.749L255.117 10.728V24H253.149ZM268.236 24V7.2H278.724V9.024H270.252V14.616H278.004V16.44H270.252V22.176H278.724V24H268.236ZM282.531 24V7.2H287.691C288.987 7.2 290.051 7.416 290.883 7.848C291.731 8.28 292.363 8.872 292.779 9.624C293.195 10.36 293.403 11.2 293.403 12.144C293.403 13.248 293.115 14.224 292.539 15.072C291.979 15.904 291.115 16.488 289.947 16.824L293.595 24H291.195L287.811 17.112H287.691H284.547V24H282.531ZM284.547 15.264H287.618C288.899 15.264 289.835 14.976 290.427 14.4C291.035 13.808 291.339 13.056 291.339 12.144C291.339 11.184 291.043 10.424 290.451 9.864C289.875 9.304 288.923 9.024 287.595 9.024H284.547V15.264ZM302.321 24.288C301.137 24.288 300.105 24.064 299.225 23.616C298.361 23.168 297.689 22.544 297.209 21.744C296.745 20.944 296.505 20.008 296.489 18.936H298.601C298.617 19.896 298.937 20.728 299.561 21.432C300.201 22.12 301.121 22.464 302.321 22.464C303.425 22.464 304.273 22.2 304.865 21.672C305.473 21.128 305.777 20.48 305.777 19.728C305.777 19.104 305.633 18.584 305.345 18.168C305.057 17.736 304.585 17.36 303.929 17.04C303.289 16.704 302.425 16.36 301.337 16.008C299.801 15.544 298.681 14.912 297.977 14.112C297.273 13.312 296.921 12.32 296.921 11.136C296.921 10.336 297.129 9.616 297.545 8.976C297.961 8.336 298.561 7.832 299.345 7.464C300.129 7.096 301.081 6.912 302.201 6.912C303.257 6.912 304.177 7.112 304.961 7.512C305.761 7.896 306.377 8.44 306.809 9.144C307.257 9.848 307.481 10.656 307.481 11.568H305.369C305.369 11.12 305.249 10.68 305.009 10.248C304.769 9.816 304.409 9.456 303.929 9.168C303.449 8.88 302.841 8.736 302.105 8.736C301.225 8.736 300.489 8.952 299.897 9.384C299.305 9.8 299.009 10.376 299.009 11.112C299.009 11.672 299.137 12.144 299.393 12.528C299.665 12.912 300.105 13.264 300.713 13.584C301.321 13.888 302.145 14.216 303.185 14.568C304.161 14.888 304.993 15.264 305.681 15.696C306.385 16.112 306.921 16.632 307.289 17.256C307.673 17.88 307.865 18.656 307.865 19.584C307.865 20.496 307.633 21.304 307.169 22.008C306.705 22.712 306.057 23.272 305.225 23.688C304.393 24.088 303.425 24.288 302.321 24.288ZM310.472 24V7.2H312.488V14.448H320.624V7.2H322.64V24H320.624V16.272H312.488V24H310.472ZM326.11 24V22.248H329.926V8.952H326.11V7.2H335.758V8.952H331.942V22.248H335.758V24H326.11ZM339.901 24V7.2H345.493C346.773 7.2 347.821 7.432 348.637 7.896C349.453 8.36 350.053 8.976 350.437 9.744C350.821 10.512 351.013 11.36 351.013 12.288C351.013 13.216 350.821 14.064 350.437 14.832C350.053 15.6 349.453 16.216 348.637 16.68C347.821 17.144 346.773 17.376 345.493 17.376H341.917V24H339.901ZM341.917 15.528H345.445C346.629 15.528 347.509 15.232 348.085 14.64C348.661 14.032 348.949 13.248 348.949 12.288C348.949 11.328 348.661 10.544 348.085 9.936C347.509 9.328 346.629 9.024 345.445 9.024H341.917V15.528ZM368.106 24V7.2H370.266L374.106 15.192L377.946 7.2H380.106V24H378.138V11.088L374.874 17.88H373.338L370.074 11.112V24H368.106ZM382.089 24L387.345 7.2H389.673L394.905 24H392.697L391.473 19.824H385.521L384.297 24H382.089ZM388.449 10.032L386.025 18.144H390.969L388.545 10.032H388.449ZM396.672 24L401.736 15.6L396.672 7.2H398.976L402.936 13.776L406.8 7.2H409.104L404.016 15.576L409.104 24H406.8L402.816 17.4L398.976 24H396.672ZM412.454 24V22.248H416.27V8.952H412.454V7.2H422.102V8.952H418.286V22.248H422.102V24H412.454ZM431.837 24.288C430.653 24.288 429.621 24.064 428.741 23.616C427.877 23.168 427.205 22.544 426.725 21.744C426.261 20.944 426.021 20.008 426.005 18.936H428.117C428.133 19.896 428.453 20.728 429.077 21.432C429.717 22.12 430.637 22.464 431.837 22.464C432.941 22.464 433.789 22.2 434.381 21.672C434.989 21.128 435.293 20.48 435.293 19.728C435.293 19.104 435.149 18.584 434.861 18.168C434.573 17.736 434.101 17.36 433.445 17.04C432.805 16.704 431.941 16.36 430.853 16.008C429.317 15.544 428.197 14.912 427.493 14.112C426.789 13.312 426.437 12.32 426.437 11.136C426.437 10.336 426.645 9.616 427.061 8.976C427.477 8.336 428.077 7.832 428.861 7.464C429.645 7.096 430.597 6.912 431.717 6.912C432.773 6.912 433.693 7.112 434.477 7.512C435.277 7.896 435.893 8.44 436.325 9.144C436.773 9.848 436.997 10.656 436.997 11.568H434.885C434.885 11.12 434.765 10.68 434.525 10.248C434.285 9.816 433.925 9.456 433.445 9.168C432.965 8.88 432.357 8.736 431.621 8.736C430.741 8.736 430.005 8.952 429.413 9.384C428.821 9.8 428.525 10.376 428.525 11.112C428.525 11.672 428.653 12.144 428.909 12.528C429.181 12.912 429.621 13.264 430.229 13.584C430.837 13.888 431.661 14.216 432.701 14.568C433.677 14.888 434.509 15.264 435.197 15.696C435.901 16.112 436.437 16.632 436.805 17.256C437.189 17.88 437.381 18.656 437.381 19.584C437.381 20.496 437.149 21.304 436.685 22.008C436.221 22.712 435.573 23.272 434.741 23.688C433.909 24.088 432.941 24.288 431.837 24.288ZM442.795 26.928L444.907 20.472H447.571L444.715 26.928H442.795ZM230.368 55.288C229.184 55.288 228.152 55.064 227.272 54.616C226.408 54.168 225.736 53.544 225.256 52.744C224.792 51.944 224.552 51.008 224.536 49.936H226.648C226.664 50.896 226.984 51.728 227.608 52.432C228.248 53.12 229.168 53.464 230.368 53.464C231.472 53.464 232.32 53.2 232.912 52.672C233.52 52.128 233.824 51.48 233.824 50.728C233.824 50.104 233.68 49.584 233.392 49.168C233.104 48.736 232.632 48.36 231.976 48.04C231.336 47.704 230.472 47.36 229.384 47.008C227.848 46.544 226.728 45.912 226.024 45.112C225.32 44.312 224.968 43.32 224.968 42.136C224.968 41.336 225.176 40.616 225.592 39.976C226.008 39.336 226.608 38.832 227.392 38.464C228.176 38.096 229.128 37.912 230.248 37.912C231.304 37.912 232.224 38.112 233.008 38.512C233.808 38.896 234.424 39.44 234.856 40.144C235.304 40.848 235.528 41.656 235.528 42.568H233.416C233.416 42.12 233.296 41.68 233.056 41.248C232.816 40.816 232.456 40.456 231.976 40.168C231.496 39.88 230.888 39.736 230.152 39.736C229.272 39.736 228.536 39.952 227.944 40.384C227.352 40.8 227.056 41.376 227.056 42.112C227.056 42.672 227.184 43.144 227.44 43.528C227.712 43.912 228.152 44.264 228.76 44.584C229.368 44.888 230.192 45.216 231.232 45.568C232.208 45.888 233.04 46.264 233.728 46.696C234.432 47.112 234.968 47.632 235.336 48.256C235.72 48.88 235.912 49.656 235.912 50.584C235.912 51.496 235.68 52.304 235.216 53.008C234.752 53.712 234.104 54.272 233.272 54.688C232.44 55.088 231.472 55.288 230.368 55.288ZM239.455 55V38.2H249.943V40.024H241.471V45.616H249.223V47.44H241.471V53.176H249.943V55H239.455ZM253.869 55V38.2H255.885V53.176H264.405V55H253.869ZM268.356 55V38.2H278.844V40.072H270.372V45.928H277.62V47.728H270.372V55H268.356ZM283.803 47.464V45.736H291.723V47.464H283.803ZM302.273 55.288C300.913 55.288 299.737 54.928 298.745 54.208C297.769 53.488 297.017 52.48 296.489 51.184C295.977 49.888 295.721 48.36 295.721 46.6C295.721 44.856 295.977 43.336 296.489 42.04C297.017 40.728 297.769 39.712 298.745 38.992C299.737 38.272 300.913 37.912 302.273 37.912C304.001 37.912 305.393 38.392 306.449 39.352C307.505 40.296 308.121 41.56 308.297 43.144H306.065C305.905 42.2 305.505 41.408 304.865 40.768C304.225 40.128 303.361 39.808 302.273 39.808C300.881 39.808 299.785 40.416 298.985 41.632C298.185 42.832 297.785 44.488 297.785 46.6C297.785 48.728 298.185 50.392 298.985 51.592C299.785 52.792 300.881 53.392 302.273 53.392C303.409 53.392 304.281 53.088 304.889 52.48C305.513 51.872 305.905 51.088 306.065 50.128H308.297C308.041 51.728 307.401 52.992 306.377 53.92C305.369 54.832 304.001 55.288 302.273 55.288ZM316.52 55.288C315.4 55.288 314.4 55.056 313.52 54.592C312.656 54.128 311.968 53.424 311.456 52.48C310.96 51.52 310.712 50.32 310.712 48.88V38.2H312.728V48.952C312.728 50.392 313.08 51.504 313.784 52.288C314.488 53.072 315.416 53.464 316.568 53.464C317.72 53.464 318.64 53.072 319.328 52.288C320.016 51.504 320.36 50.392 320.36 48.952V38.2H322.376V48.88C322.376 50.32 322.12 51.52 321.608 52.48C321.096 53.424 320.4 54.128 319.52 54.592C318.64 55.056 317.64 55.288 316.52 55.288ZM331.102 55.288C329.918 55.288 328.886 55.064 328.006 54.616C327.142 54.168 326.47 53.544 325.99 52.744C325.526 51.944 325.286 51.008 325.27 49.936H327.382C327.398 50.896 327.718 51.728 328.342 52.432C328.982 53.12 329.902 53.464 331.102 53.464C332.206 53.464 333.054 53.2 333.646 52.672C334.254 52.128 334.558 51.48 334.558 50.728C334.558 50.104 334.414 49.584 334.126 49.168C333.838 48.736 333.366 48.36 332.71 48.04C332.07 47.704 331.206 47.36 330.118 47.008C328.582 46.544 327.462 45.912 326.758 45.112C326.054 44.312 325.702 43.32 325.702 42.136C325.702 41.336 325.91 40.616 326.326 39.976C326.742 39.336 327.342 38.832 328.126 38.464C328.91 38.096 329.862 37.912 330.982 37.912C332.038 37.912 332.958 38.112 333.742 38.512C334.542 38.896 335.158 39.44 335.59 40.144C336.038 40.848 336.262 41.656 336.262 42.568H334.15C334.15 42.12 334.03 41.68 333.79 41.248C333.55 40.816 333.19 40.456 332.71 40.168C332.23 39.88 331.622 39.736 330.886 39.736C330.006 39.736 329.27 39.952 328.678 40.384C328.086 40.8 327.79 41.376 327.79 42.112C327.79 42.672 327.918 43.144 328.174 43.528C328.446 43.912 328.886 44.264 329.494 44.584C330.102 44.888 330.926 45.216 331.966 45.568C332.942 45.888 333.774 46.264 334.462 46.696C335.166 47.112 335.702 47.632 336.07 48.256C336.454 48.88 336.646 49.656 336.646 50.584C336.646 51.496 336.414 52.304 335.95 53.008C335.486 53.712 334.838 54.272 334.006 54.688C333.174 55.088 332.206 55.288 331.102 55.288ZM344.317 55V40.024H339.805V38.2H350.845V40.024H346.333V55H344.317ZM359.716 55.288C358.356 55.288 357.188 54.928 356.212 54.208C355.236 53.488 354.484 52.48 353.956 51.184C353.444 49.872 353.188 48.344 353.188 46.6C353.188 44.856 353.444 43.336 353.956 42.04C354.484 40.728 355.236 39.712 356.212 38.992C357.188 38.272 358.356 37.912 359.716 37.912C361.076 37.912 362.244 38.272 363.22 38.992C364.196 39.712 364.94 40.728 365.452 42.04C365.98 43.336 366.244 44.856 366.244 46.6C366.244 48.344 365.98 49.872 365.452 51.184C364.94 52.48 364.196 53.488 363.22 54.208C362.244 54.928 361.076 55.288 359.716 55.288ZM359.716 53.392C361.044 53.392 362.116 52.8 362.932 51.616C363.764 50.432 364.18 48.76 364.18 46.6C364.18 44.44 363.764 42.768 362.932 41.584C362.116 40.4 361.044 39.808 359.716 39.808C358.372 39.808 357.292 40.4 356.476 41.584C355.66 42.768 355.252 44.44 355.252 46.6C355.252 48.76 355.66 50.432 356.476 51.616C357.292 52.8 358.372 53.392 359.716 53.392ZM368.49 55V38.2H372.018C374.77 38.2 376.802 38.952 378.114 40.456C379.442 41.96 380.106 44.008 380.106 46.6C380.106 49.192 379.442 51.24 378.114 52.744C376.802 54.248 374.77 55 372.018 55H368.49ZM370.506 53.152H371.97C373.442 53.152 374.618 52.88 375.498 52.336C376.394 51.792 377.042 51.032 377.442 50.056C377.842 49.08 378.042 47.928 378.042 46.6C378.042 45.272 377.842 44.12 377.442 43.144C377.042 42.168 376.394 41.408 375.498 40.864C374.618 40.32 373.442 40.048 371.97 40.048H370.506V53.152ZM383.673 55V53.248H387.489V39.952H383.673V38.2H393.321V39.952H389.505V53.248H393.321V55H383.673ZM396.479 55L401.736 38.2H404.064L409.296 55H407.088L405.864 50.824H399.912L398.688 55H396.479ZM402.84 41.032L400.416 49.144H405.36L402.936 41.032H402.84ZM411.446 55V38.2H413.51L421.142 51.472V38.2H423.134V55H421.046L413.414 41.728V55H411.446ZM431.837 55.288C430.653 55.288 429.621 55.064 428.741 54.616C427.877 54.168 427.205 53.544 426.725 52.744C426.261 51.944 426.021 51.008 426.005 49.936H428.117C428.133 50.896 428.453 51.728 429.077 52.432C429.717 53.12 430.637 53.464 431.837 53.464C432.941 53.464 433.789 53.2 434.381 52.672C434.989 52.128 435.293 51.48 435.293 50.728C435.293 50.104 435.149 49.584 434.861 49.168C434.573 48.736 434.101 48.36 433.445 48.04C432.805 47.704 431.941 47.36 430.853 47.008C429.317 46.544 428.197 45.912 427.493 45.112C426.789 44.312 426.437 43.32 426.437 42.136C426.437 41.336 426.645 40.616 427.061 39.976C427.477 39.336 428.077 38.832 428.861 38.464C429.645 38.096 430.597 37.912 431.717 37.912C432.773 37.912 433.693 38.112 434.477 38.512C435.277 38.896 435.893 39.44 436.325 40.144C436.773 40.848 436.997 41.656 436.997 42.568H434.885C434.885 42.12 434.765 41.68 434.525 41.248C434.285 40.816 433.925 40.456 433.445 40.168C432.965 39.88 432.357 39.736 431.621 39.736C430.741 39.736 430.005 39.952 429.413 40.384C428.821 40.8 428.525 41.376 428.525 42.112C428.525 42.672 428.653 43.144 428.909 43.528C429.181 43.912 429.621 44.264 430.229 44.584C430.837 44.888 431.661 45.216 432.701 45.568C433.677 45.888 434.509 46.264 435.197 46.696C435.901 47.112 436.437 47.632 436.805 48.256C437.189 48.88 437.381 49.656 437.381 50.584C437.381 51.496 437.149 52.304 436.685 53.008C436.221 53.712 435.573 54.272 434.741 54.688C433.909 55.088 432.941 55.288 431.837 55.288ZM442.795 57.928L444.907 51.472H447.571L444.715 57.928H442.795ZM224.584 86V69.2H228.112C230.864 69.2 232.896 69.952 234.208 71.456C235.536 72.96 236.2 75.008 236.2 77.6C236.2 80.192 235.536 82.24 234.208 83.744C232.896 85.248 230.864 86 228.112 86H224.584ZM226.6 84.152H228.064C229.536 84.152 230.712 83.88 231.592 83.336C232.488 82.792 233.136 82.032 233.536 81.056C233.936 80.08 234.136 78.928 234.136 77.6C234.136 76.272 233.936 75.12 233.536 74.144C233.136 73.168 232.488 72.408 231.592 71.864C230.712 71.32 229.536 71.048 228.064 71.048H226.6V84.152ZM239.455 86V69.2H249.943V71.024H241.471V76.616H249.223V78.44H241.471V84.176H249.943V86H239.455ZM259.101 86.288C257.741 86.288 256.565 85.928 255.573 85.208C254.597 84.488 253.845 83.48 253.317 82.184C252.805 80.888 252.549 79.36 252.549 77.6C252.549 75.856 252.805 74.336 253.317 73.04C253.845 71.728 254.597 70.712 255.573 69.992C256.565 69.272 257.741 68.912 259.101 68.912C260.829 68.912 262.221 69.392 263.277 70.352C264.333 71.296 264.949 72.56 265.125 74.144H262.893C262.733 73.2 262.333 72.408 261.693 71.768C261.053 71.128 260.189 70.808 259.101 70.808C257.709 70.808 256.613 71.416 255.813 72.632C255.013 73.832 254.613 75.488 254.613 77.6C254.613 79.728 255.013 81.392 255.813 82.592C256.613 83.792 257.709 84.392 259.101 84.392C260.237 84.392 261.109 84.088 261.717 83.48C262.341 82.872 262.733 82.088 262.893 81.128H265.125C264.869 82.728 264.229 83.992 263.205 84.92C262.197 85.832 260.829 86.288 259.101 86.288ZM268.236 86V69.2H278.724V71.024H270.252V76.616H278.004V78.44H270.252V84.176H278.724V86H268.236ZM281.931 86V69.2H283.995L291.627 82.472V69.2H293.619V86H291.531L283.899 72.728V86H281.931ZM301.145 86V71.024H296.633V69.2H307.673V71.024H303.161V86H301.145ZM311.312 86V69.2H316.472C317.768 69.2 318.832 69.416 319.664 69.848C320.512 70.28 321.144 70.872 321.56 71.624C321.976 72.36 322.184 73.2 322.184 74.144C322.184 75.248 321.896 76.224 321.32 77.072C320.76 77.904 319.896 78.488 318.728 78.824L322.376 86H319.976L316.592 79.112H316.472H313.328V86H311.312ZM313.328 77.264H316.4C317.68 77.264 318.616 76.976 319.208 76.4C319.816 75.808 320.12 75.056 320.12 74.144C320.12 73.184 319.824 72.424 319.232 71.864C318.656 71.304 317.704 71.024 316.376 71.024H313.328V77.264ZM324.526 86L329.782 69.2H332.11L337.342 86H335.134L333.91 81.824H327.958L326.734 86H324.526ZM330.886 72.032L328.462 80.144H333.406L330.982 72.032H330.886ZM340.213 86V69.2H342.229V84.176H350.749V86H340.213ZM354.892 86V84.248H358.708V70.952H354.892V69.2H364.54V70.952H360.724V84.248H364.54V86H354.892ZM374.274 86.288C373.09 86.288 372.058 86.064 371.178 85.616C370.314 85.168 369.642 84.544 369.162 83.744C368.698 82.944 368.458 82.008 368.442 80.936H370.554C370.57 81.896 370.89 82.728 371.514 83.432C372.154 84.12 373.074 84.464 374.274 84.464C375.378 84.464 376.226 84.2 376.818 83.672C377.426 83.128 377.73 82.48 377.73 81.728C377.73 81.104 377.586 80.584 377.298 80.168C377.01 79.736 376.538 79.36 375.882 79.04C375.242 78.704 374.378 78.36 373.29 78.008C371.754 77.544 370.634 76.912 369.93 76.112C369.226 75.312 368.874 74.32 368.874 73.136C368.874 72.336 369.082 71.616 369.498 70.976C369.914 70.336 370.514 69.832 371.298 69.464C372.082 69.096 373.034 68.912 374.154 68.912C375.21 68.912 376.13 69.112 376.914 69.512C377.714 69.896 378.33 70.44 378.762 71.144C379.21 71.848 379.434 72.656 379.434 73.568H377.322C377.322 73.12 377.202 72.68 376.962 72.248C376.722 71.816 376.362 71.456 375.882 71.168C375.402 70.88 374.794 70.736 374.058 70.736C373.178 70.736 372.442 70.952 371.85 71.384C371.258 71.8 370.962 72.376 370.962 73.112C370.962 73.672 371.09 74.144 371.346 74.528C371.618 74.912 372.058 75.264 372.666 75.584C373.274 75.888 374.098 76.216 375.138 76.568C376.114 76.888 376.946 77.264 377.634 77.696C378.338 78.112 378.874 78.632 379.242 79.256C379.626 79.88 379.818 80.656 379.818 81.584C379.818 82.496 379.586 83.304 379.122 84.008C378.658 84.712 378.01 85.272 377.178 85.688C376.346 86.088 375.378 86.288 374.274 86.288ZM383.361 86V69.2H393.849V71.024H385.377V76.616H393.129V78.44H385.377V84.176H393.849V86H383.361ZM397.656 86V69.2H402.816C404.112 69.2 405.176 69.416 406.008 69.848C406.856 70.28 407.488 70.872 407.904 71.624C408.32 72.36 408.528 73.2 408.528 74.144C408.528 75.248 408.24 76.224 407.664 77.072C407.104 77.904 406.24 78.488 405.072 78.824L408.72 86H406.32L402.936 79.112H402.816H399.672V86H397.656ZM399.672 77.264H402.743C404.024 77.264 404.96 76.976 405.552 76.4C406.16 75.808 406.464 75.056 406.464 74.144C406.464 73.184 406.168 72.424 405.576 71.864C405 71.304 404.048 71.024 402.72 71.024H399.672V77.264ZM417.446 86.288C416.262 86.288 415.23 86.064 414.35 85.616C413.486 85.168 412.814 84.544 412.334 83.744C411.87 82.944 411.63 82.008 411.614 80.936H413.726C413.742 81.896 414.062 82.728 414.686 83.432C415.326 84.12 416.246 84.464 417.446 84.464C418.55 84.464 419.398 84.2 419.99 83.672C420.598 83.128 420.902 82.48 420.902 81.728C420.902 81.104 420.758 80.584 420.47 80.168C420.182 79.736 419.71 79.36 419.054 79.04C418.414 78.704 417.55 78.36 416.462 78.008C414.926 77.544 413.806 76.912 413.102 76.112C412.398 75.312 412.046 74.32 412.046 73.136C412.046 72.336 412.254 71.616 412.67 70.976C413.086 70.336 413.686 69.832 414.47 69.464C415.254 69.096 416.206 68.912 417.326 68.912C418.382 68.912 419.302 69.112 420.086 69.512C420.886 69.896 421.502 70.44 421.934 71.144C422.382 71.848 422.606 72.656 422.606 73.568H420.494C420.494 73.12 420.374 72.68 420.134 72.248C419.894 71.816 419.534 71.456 419.054 71.168C418.574 70.88 417.966 70.736 417.23 70.736C416.35 70.736 415.614 70.952 415.022 71.384C414.43 71.8 414.134 72.376 414.134 73.112C414.134 73.672 414.262 74.144 414.518 74.528C414.79 74.912 415.23 75.264 415.838 75.584C416.446 75.888 417.27 76.216 418.31 76.568C419.286 76.888 420.118 77.264 420.806 77.696C421.51 78.112 422.046 78.632 422.414 79.256C422.798 79.88 422.99 80.656 422.99 81.584C422.99 82.496 422.758 83.304 422.294 84.008C421.83 84.712 421.182 85.272 420.35 85.688C419.518 86.088 418.55 86.288 417.446 86.288ZM428.405 88.928L430.517 82.472H433.181L430.325 88.928H428.405ZM223.792 117L229.048 100.2H231.376L236.608 117H234.4L233.176 112.824H227.224L226 117H223.792ZM230.152 103.032L227.728 111.144H232.672L230.248 103.032H230.152ZM244.711 117.288C243.351 117.288 242.175 116.928 241.183 116.208C240.207 115.488 239.455 114.48 238.927 113.184C238.415 111.888 238.159 110.36 238.159 108.6C238.159 106.856 238.415 105.336 238.927 104.04C239.455 102.728 240.207 101.712 241.183 100.992C242.175 100.272 243.351 99.912 244.711 99.912C246.439 99.912 247.831 100.392 248.887 101.352C249.943 102.296 250.559 103.56 250.735 105.144H248.503C248.343 104.2 247.943 103.408 247.303 102.768C246.663 102.128 245.799 101.808 244.711 101.808C243.319 101.808 242.223 102.416 241.423 103.632C240.623 104.832 240.223 106.488 240.223 108.6C240.223 110.728 240.623 112.392 241.423 113.592C242.223 114.792 243.319 115.392 244.711 115.392C245.847 115.392 246.719 115.088 247.327 114.48C247.951 113.872 248.343 113.088 248.503 112.128H250.735C250.479 113.728 249.839 114.992 248.815 115.92C247.807 116.832 246.439 117.288 244.711 117.288ZM259.101 117.288C257.741 117.288 256.565 116.928 255.573 116.208C254.597 115.488 253.845 114.48 253.317 113.184C252.805 111.888 252.549 110.36 252.549 108.6C252.549 106.856 252.805 105.336 253.317 104.04C253.845 102.728 254.597 101.712 255.573 100.992C256.565 100.272 257.741 99.912 259.101 99.912C260.829 99.912 262.221 100.392 263.277 101.352C264.333 102.296 264.949 103.56 265.125 105.144H262.893C262.733 104.2 262.333 103.408 261.693 102.768C261.053 102.128 260.189 101.808 259.101 101.808C257.709 101.808 256.613 102.416 255.813 103.632C255.013 104.832 254.613 106.488 254.613 108.6C254.613 110.728 255.013 112.392 255.813 113.592C256.613 114.792 257.709 115.392 259.101 115.392C260.237 115.392 261.109 115.088 261.717 114.48C262.341 113.872 262.733 113.088 262.893 112.128H265.125C264.869 113.728 264.229 114.992 263.205 115.92C262.197 116.832 260.829 117.288 259.101 117.288ZM273.372 117.288C272.012 117.288 270.844 116.928 269.868 116.208C268.892 115.488 268.14 114.48 267.612 113.184C267.1 111.872 266.844 110.344 266.844 108.6C266.844 106.856 267.1 105.336 267.612 104.04C268.14 102.728 268.892 101.712 269.868 100.992C270.844 100.272 272.012 99.912 273.372 99.912C274.732 99.912 275.9 100.272 276.876 100.992C277.852 101.712 278.596 102.728 279.108 104.04C279.636 105.336 279.9 106.856 279.9 108.6C279.9 110.344 279.636 111.872 279.108 113.184C278.596 114.48 277.852 115.488 276.876 116.208C275.9 116.928 274.732 117.288 273.372 117.288ZM273.372 115.392C274.7 115.392 275.772 114.8 276.588 113.616C277.42 112.432 277.836 110.76 277.836 108.6C277.836 106.44 277.42 104.768 276.588 103.584C275.772 102.4 274.7 101.808 273.372 101.808C272.028 101.808 270.948 102.4 270.132 103.584C269.316 104.768 268.908 106.44 268.908 108.6C268.908 110.76 269.316 112.432 270.132 113.616C270.948 114.8 272.028 115.392 273.372 115.392ZM287.739 117.288C286.619 117.288 285.619 117.056 284.739 116.592C283.875 116.128 283.187 115.424 282.675 114.48C282.179 113.52 281.931 112.32 281.931 110.88V100.2H283.947V110.952C283.947 112.392 284.299 113.504 285.003 114.288C285.707 115.072 286.635 115.464 287.787 115.464C288.939 115.464 289.859 115.072 290.547 114.288C291.235 113.504 291.579 112.392 291.579 110.952V100.2H293.595V110.88C293.595 112.32 293.339 113.52 292.827 114.48C292.315 115.424 291.619 116.128 290.739 116.592C289.859 117.056 288.859 117.288 287.739 117.288ZM296.321 117V100.2H298.385L306.017 113.472V100.2H308.009V117H305.921L298.289 103.728V117H296.321ZM315.536 117V102.024H311.024V100.2H322.064V102.024H317.552V117H315.536ZM338.917 117L344.173 100.2H346.501L351.733 117H349.525L348.301 112.824H342.349L341.125 117H338.917ZM345.277 103.032L342.853 111.144H347.797L345.373 103.032H345.277ZM354.1 117V100.2H359.692C361.436 100.2 362.748 100.6 363.628 101.4C364.508 102.2 364.948 103.224 364.948 104.472C364.948 105.448 364.684 106.256 364.156 106.896C363.628 107.52 363.036 107.96 362.38 108.216V108.384C363.164 108.64 363.852 109.104 364.444 109.776C365.036 110.448 365.332 111.312 365.332 112.368C365.332 113.232 365.116 114.016 364.684 114.72C364.268 115.408 363.652 115.96 362.836 116.376C362.036 116.792 361.052 117 359.884 117H354.1ZM356.116 107.448H359.548C360.62 107.448 361.436 107.216 361.996 106.752C362.572 106.272 362.86 105.584 362.86 104.688C362.86 103.84 362.58 103.184 362.02 102.72C361.46 102.256 360.612 102.024 359.476 102.024H356.116V107.448ZM356.116 115.152H359.668C360.82 115.152 361.708 114.896 362.332 114.384C362.956 113.856 363.268 113.12 363.268 112.176C363.268 111.232 362.94 110.504 362.284 109.992C361.628 109.464 360.74 109.2 359.62 109.2H356.116V115.152ZM374.274 117.288C373.09 117.288 372.058 117.064 371.178 116.616C370.314 116.168 369.642 115.544 369.162 114.744C368.698 113.944 368.458 113.008 368.442 111.936H370.554C370.57 112.896 370.89 113.728 371.514 114.432C372.154 115.12 373.074 115.464 374.274 115.464C375.378 115.464 376.226 115.2 376.818 114.672C377.426 114.128 377.73 113.48 377.73 112.728C377.73 112.104 377.586 111.584 377.298 111.168C377.01 110.736 376.538 110.36 375.882 110.04C375.242 109.704 374.378 109.36 373.29 109.008C371.754 108.544 370.634 107.912 369.93 107.112C369.226 106.312 368.874 105.32 368.874 104.136C368.874 103.336 369.082 102.616 369.498 101.976C369.914 101.336 370.514 100.832 371.298 100.464C372.082 100.096 373.034 99.912 374.154 99.912C375.21 99.912 376.13 100.112 376.914 100.512C377.714 100.896 378.33 101.44 378.762 102.144C379.21 102.848 379.434 103.656 379.434 104.568H377.322C377.322 104.12 377.202 103.68 376.962 103.248C376.722 102.816 376.362 102.456 375.882 102.168C375.402 101.88 374.794 101.736 374.058 101.736C373.178 101.736 372.442 101.952 371.85 102.384C371.258 102.8 370.962 103.376 370.962 104.112C370.962 104.672 371.09 105.144 371.346 105.528C371.618 105.912 372.058 106.264 372.666 106.584C373.274 106.888 374.098 107.216 375.138 107.568C376.114 107.888 376.946 108.264 377.634 108.696C378.338 109.112 378.874 109.632 379.242 110.256C379.626 110.88 379.818 111.656 379.818 112.584C379.818 113.496 379.586 114.304 379.122 115.008C378.658 115.712 378.01 116.272 377.178 116.688C376.346 117.088 375.378 117.288 374.274 117.288ZM387.489 117V102.024H382.977V100.2H394.017V102.024H389.505V117H387.489ZM397.656 117V100.2H402.816C404.112 100.2 405.176 100.416 406.008 100.848C406.856 101.28 407.488 101.872 407.904 102.624C408.32 103.36 408.528 104.2 408.528 105.144C408.528 106.248 408.24 107.224 407.664 108.072C407.104 108.904 406.24 109.488 405.072 109.824L408.72 117H406.32L402.936 110.112H402.816H399.672V117H397.656ZM399.672 108.264H402.743C404.024 108.264 404.96 107.976 405.552 107.4C406.16 106.808 406.464 106.056 406.464 105.144C406.464 104.184 406.168 103.424 405.576 102.864C405 102.304 404.048 102.024 402.72 102.024H399.672V108.264ZM410.87 117L416.126 100.2H418.454L423.686 117H421.478L420.254 112.824H414.302L413.078 117H410.87ZM417.23 103.032L414.806 111.144H419.75L417.326 103.032H417.23ZM431.789 117.288C430.429 117.288 429.253 116.928 428.261 116.208C427.285 115.488 426.533 114.48 426.005 113.184C425.493 111.888 425.237 110.36 425.237 108.6C425.237 106.856 425.493 105.336 426.005 104.04C426.533 102.728 427.285 101.712 428.261 100.992C429.253 100.272 430.429 99.912 431.789 99.912C433.517 99.912 434.909 100.392 435.965 101.352C437.021 102.296 437.637 103.56 437.813 105.144H435.581C435.421 104.2 435.021 103.408 434.381 102.768C433.741 102.128 432.877 101.808 431.789 101.808C430.397 101.808 429.301 102.416 428.501 103.632C427.701 104.832 427.301 106.488 427.301 108.6C427.301 110.728 427.701 112.392 428.501 113.592C429.301 114.792 430.397 115.392 431.789 115.392C432.925 115.392 433.797 115.088 434.405 114.48C435.029 113.872 435.421 113.088 435.581 112.128H437.813C437.557 113.728 436.917 114.992 435.893 115.92C434.885 116.832 433.517 117.288 431.789 117.288ZM445.051 117V102.024H440.539V100.2H451.579V102.024H447.067V117H445.051ZM460.45 117.288C459.09 117.288 457.922 116.928 456.946 116.208C455.97 115.488 455.218 114.48 454.69 113.184C454.178 111.872 453.922 110.344 453.922 108.6C453.922 106.856 454.178 105.336 454.69 104.04C455.218 102.728 455.97 101.712 456.946 100.992C457.922 100.272 459.09 99.912 460.45 99.912C461.81 99.912 462.978 100.272 463.954 100.992C464.93 101.712 465.674 102.728 466.186 104.04C466.714 105.336 466.978 106.856 466.978 108.6C466.978 110.344 466.714 111.872 466.186 113.184C465.674 114.48 464.93 115.488 463.954 116.208C462.978 116.928 461.81 117.288 460.45 117.288ZM460.45 115.392C461.778 115.392 462.85 114.8 463.666 113.616C464.498 112.432 464.914 110.76 464.914 108.6C464.914 106.44 464.498 104.768 463.666 103.584C462.85 102.4 461.778 101.808 460.45 101.808C459.106 101.808 458.026 102.4 457.21 103.584C456.394 104.768 455.986 106.44 455.986 108.6C455.986 110.76 456.394 112.432 457.21 113.616C458.026 114.8 459.106 115.392 460.45 115.392ZM474.841 117.288C473.481 117.288 472.313 116.928 471.337 116.208C470.361 115.488 469.609 114.48 469.081 113.184C468.569 111.872 468.313 110.344 468.313 108.6C468.313 106.856 468.569 105.336 469.081 104.04C469.609 102.728 470.361 101.712 471.337 100.992C472.313 100.272 473.481 99.912 474.841 99.912C476.201 99.912 477.369 100.272 478.345 100.992C479.321 101.712 480.065 102.728 480.577 104.04C481.105 105.336 481.369 106.856 481.369 108.6C481.369 110.344 481.105 111.872 480.577 113.184C480.065 114.48 479.321 115.488 478.345 116.208C477.369 116.928 476.201 117.288 474.841 117.288ZM474.841 115.392C476.169 115.392 477.241 114.8 478.057 113.616C478.889 112.432 479.305 110.76 479.305 108.6C479.305 106.44 478.889 104.768 478.057 103.584C477.241 102.4 476.169 101.808 474.841 101.808C473.497 101.808 472.417 102.4 471.601 103.584C470.785 104.768 470.377 106.44 470.377 108.6C470.377 110.76 470.785 112.432 471.601 113.616C472.417 114.8 473.497 115.392 474.841 115.392ZM483.999 117V100.2H489.159C490.455 100.2 491.519 100.416 492.351 100.848C493.199 101.28 493.831 101.872 494.247 102.624C494.663 103.36 494.871 104.2 494.871 105.144C494.871 106.248 494.583 107.224 494.007 108.072C493.447 108.904 492.583 109.488 491.415 109.824L495.063 117H492.663L489.279 110.112H489.159H486.015V117H483.999ZM486.015 108.264H489.087C490.367 108.264 491.303 107.976 491.895 107.4C492.503 106.808 492.807 106.056 492.807 105.144C492.807 104.184 492.511 103.424 491.919 102.864C491.343 102.304 490.391 102.024 489.063 102.024H486.015V108.264ZM503.79 117.288C502.606 117.288 501.574 117.064 500.694 116.616C499.83 116.168 499.158 115.544 498.678 114.744C498.214 113.944 497.974 113.008 497.958 111.936H500.07C500.086 112.896 500.406 113.728 501.03 114.432C501.67 115.12 502.59 115.464 503.79 115.464C504.894 115.464 505.742 115.2 506.334 114.672C506.942 114.128 507.246 113.48 507.246 112.728C507.246 112.104 507.102 111.584 506.814 111.168C506.526 110.736 506.054 110.36 505.398 110.04C504.758 109.704 503.894 109.36 502.806 109.008C501.27 108.544 500.15 107.912 499.446 107.112C498.742 106.312 498.39 105.32 498.39 104.136C498.39 103.336 498.598 102.616 499.014 101.976C499.43 101.336 500.03 100.832 500.814 100.464C501.598 100.096 502.55 99.912 503.67 99.912C504.726 99.912 505.646 100.112 506.43 100.512C507.23 100.896 507.846 101.44 508.278 102.144C508.726 102.848 508.95 103.656 508.95 104.568H506.838C506.838 104.12 506.718 103.68 506.478 103.248C506.238 102.816 505.878 102.456 505.398 102.168C504.918 101.88 504.31 101.736 503.574 101.736C502.694 101.736 501.958 101.952 501.366 102.384C500.774 102.8 500.478 103.376 500.478 104.112C500.478 104.672 500.606 105.144 500.862 105.528C501.134 105.912 501.574 106.264 502.182 106.584C502.79 106.888 503.614 107.216 504.654 107.568C505.63 107.888 506.462 108.264 507.15 108.696C507.854 109.112 508.39 109.632 508.758 110.256C509.142 110.88 509.334 111.656 509.334 112.584C509.334 113.496 509.102 114.304 508.638 115.008C508.174 115.712 507.526 116.272 506.694 116.688C505.862 117.088 504.894 117.288 503.79 117.288ZM514.725 121.44V121.224C515.685 120.184 516.525 119.072 517.245 117.888C517.965 116.72 518.525 115.448 518.925 114.072C519.325 112.696 519.525 111.168 519.525 109.488C519.525 107.808 519.325 106.28 518.925 104.904C518.525 103.528 517.965 102.256 517.245 101.088C516.525 99.904 515.685 98.792 514.725 97.752V97.536H516.861C517.693 98.464 518.461 99.504 519.165 100.656C519.885 101.792 520.461 103.088 520.893 104.544C521.325 105.984 521.541 107.632 521.541 109.488C521.541 111.344 521.325 113 520.893 114.456C520.461 115.896 519.885 117.184 519.165 118.32C518.461 119.472 517.693 120.512 516.861 121.44H514.725ZM232.408 152.44C231.256 152.44 230.336 152.152 229.648 151.576C228.976 151.016 228.64 150.112 228.64 148.864C228.64 148.256 228.68 147.712 228.76 147.232C228.856 146.736 228.944 146.208 229.024 145.648C229.12 145.088 229.168 144.416 229.168 143.632C229.168 142.944 228.984 142.4 228.616 142C228.264 141.584 227.68 141.376 226.864 141.376H225.736V139.6H226.864C227.68 139.6 228.264 139.4 228.616 139C228.984 138.584 229.168 138.032 229.168 137.344C229.168 136.544 229.12 135.872 229.024 135.328C228.944 134.768 228.856 134.248 228.76 133.768C228.68 133.272 228.64 132.72 228.64 132.112C228.64 130.864 228.976 129.96 229.648 129.4C230.336 128.824 231.256 128.536 232.408 128.536H234.712V130.312H232.624C231.968 130.312 231.464 130.472 231.112 130.792C230.76 131.096 230.584 131.608 230.584 132.328C230.584 132.968 230.624 133.528 230.704 134.008C230.8 134.472 230.888 134.952 230.968 135.448C231.064 135.928 231.112 136.512 231.112 137.2C231.112 138.048 230.928 138.752 230.56 139.312C230.192 139.856 229.712 140.232 229.12 140.44V140.536C229.712 140.744 230.192 141.128 230.56 141.688C230.928 142.232 231.112 142.928 231.112 143.776C231.112 144.464 231.064 145.056 230.968 145.552C230.888 146.032 230.8 146.512 230.704 146.992C230.624 147.456 230.584 148.008 230.584 148.648C230.584 149.368 230.76 149.88 231.112 150.184C231.464 150.504 231.968 150.664 232.624 150.664H234.712V152.44H232.408ZM225.688 214.44V212.664H227.776C228.432 212.664 228.936 212.504 229.288 212.184C229.64 211.88 229.816 211.368 229.816 210.648C229.816 210.008 229.768 209.456 229.672 208.992C229.592 208.512 229.504 208.032 229.408 207.552C229.328 207.056 229.288 206.464 229.288 205.776C229.288 204.928 229.472 204.232 229.84 203.688C230.208 203.128 230.688 202.744 231.28 202.536V202.44C230.688 202.232 230.208 201.856 229.84 201.312C229.472 200.752 229.288 200.048 229.288 199.2C229.288 198.512 229.328 197.928 229.408 197.448C229.504 196.952 229.592 196.472 229.672 196.008C229.768 195.528 229.816 194.968 229.816 194.328C229.816 193.608 229.64 193.096 229.288 192.792C228.936 192.472 228.432 192.312 227.776 192.312H225.688V190.536H227.992C229.144 190.536 230.056 190.824 230.728 191.4C231.416 191.96 231.76 192.864 231.76 194.112C231.76 194.72 231.712 195.272 231.616 195.768C231.536 196.248 231.448 196.768 231.352 197.328C231.272 197.872 231.232 198.544 231.232 199.344C231.232 200.032 231.408 200.584 231.76 201C232.128 201.4 232.72 201.6 233.536 201.6H234.664V203.376H233.536C232.72 203.376 232.128 203.584 231.76 204C231.408 204.4 231.232 204.944 231.232 205.632C231.232 206.416 231.272 207.088 231.352 207.648C231.448 208.208 231.536 208.736 231.616 209.232C231.712 209.712 231.76 210.256 231.76 210.864C231.76 212.112 231.416 213.016 230.728 213.576C230.056 214.152 229.144 214.44 227.992 214.44H225.688Z" fill="white"/>
<path d="M225.064 179V162.2H235.552V164.024H227.08V169.616H234.832V171.44H227.08V177.176H235.552V179H225.064ZM238.759 179V162.2H240.823L248.455 175.472V162.2H250.447V179H248.359L240.727 165.728V179H238.759ZM257.973 179V164.024H253.461V162.2H264.501V164.024H259.989V179H257.973ZM268.236 179V162.2H278.724V164.024H270.252V169.616H278.004V171.44H270.252V177.176H278.724V179H268.236ZM282.531 179V162.2H287.691C288.987 162.2 290.051 162.416 290.883 162.848C291.731 163.28 292.363 163.872 292.779 164.624C293.195 165.36 293.403 166.2 293.403 167.144C293.403 168.248 293.115 169.224 292.539 170.072C291.979 170.904 291.115 171.488 289.947 171.824L293.595 179H291.195L287.811 172.112H287.691H284.547V179H282.531ZM284.547 170.264H287.618C288.899 170.264 289.835 169.976 290.427 169.4C291.035 168.808 291.339 168.056 291.339 167.144C291.339 166.184 291.043 165.424 290.451 164.864C289.875 164.304 288.923 164.024 287.595 164.024H284.547V170.264ZM316.712 179.288C315.528 179.288 314.496 179.064 313.616 178.616C312.752 178.168 312.08 177.544 311.6 176.744C311.136 175.944 310.896 175.008 310.88 173.936H312.992C313.008 174.896 313.328 175.728 313.952 176.432C314.592 177.12 315.512 177.464 316.712 177.464C317.816 177.464 318.664 177.2 319.256 176.672C319.864 176.128 320.168 175.48 320.168 174.728C320.168 174.104 320.024 173.584 319.736 173.168C319.448 172.736 318.976 172.36 318.32 172.04C317.68 171.704 316.816 171.36 315.728 171.008C314.192 170.544 313.072 169.912 312.368 169.112C311.664 168.312 311.312 167.32 311.312 166.136C311.312 165.336 311.52 164.616 311.936 163.976C312.352 163.336 312.952 162.832 313.736 162.464C314.52 162.096 315.472 161.912 316.592 161.912C317.648 161.912 318.568 162.112 319.352 162.512C320.152 162.896 320.768 163.44 321.2 164.144C321.648 164.848 321.872 165.656 321.872 166.568H319.76C319.76 166.12 319.64 165.68 319.4 165.248C319.16 164.816 318.8 164.456 318.32 164.168C317.84 163.88 317.232 163.736 316.496 163.736C315.616 163.736 314.88 163.952 314.288 164.384C313.696 164.8 313.4 165.376 313.4 166.112C313.4 166.672 313.528 167.144 313.784 167.528C314.056 167.912 314.496 168.264 315.104 168.584C315.712 168.888 316.536 169.216 317.576 169.568C318.552 169.888 319.384 170.264 320.072 170.696C320.776 171.112 321.312 171.632 321.68 172.256C322.064 172.88 322.256 173.656 322.256 174.584C322.256 175.496 322.024 176.304 321.56 177.008C321.096 177.712 320.448 178.272 319.616 178.688C318.784 179.088 317.816 179.288 316.712 179.288ZM324.526 179L329.782 162.2H332.11L337.342 179H335.134L333.91 174.824H327.958L326.734 179H324.526ZM330.886 165.032L328.462 173.144H333.406L330.982 165.032H330.886ZM340.309 179V162.2H350.797V164.072H342.325V169.928H349.573V171.728H342.325V179H340.309ZM354.58 179V162.2H365.068V164.024H356.596V169.616H364.348V171.44H356.596V177.176H365.068V179H354.58ZM374.226 179.288C372.866 179.288 371.69 178.928 370.698 178.208C369.722 177.488 368.97 176.48 368.442 175.184C367.93 173.888 367.674 172.36 367.674 170.6C367.674 168.856 367.93 167.336 368.442 166.04C368.97 164.728 369.722 163.712 370.698 162.992C371.69 162.272 372.866 161.912 374.226 161.912C375.954 161.912 377.346 162.392 378.402 163.352C379.458 164.296 380.074 165.56 380.25 167.144H378.018C377.858 166.2 377.458 165.408 376.818 164.768C376.178 164.128 375.314 163.808 374.226 163.808C372.834 163.808 371.738 164.416 370.938 165.632C370.138 166.832 369.738 168.488 369.738 170.6C369.738 172.728 370.138 174.392 370.938 175.592C371.738 176.792 372.834 177.392 374.226 177.392C375.362 177.392 376.234 177.088 376.842 176.48C377.466 175.872 377.858 175.088 378.018 174.128H380.25C379.994 175.728 379.354 176.992 378.33 177.92C377.322 178.832 375.954 179.288 374.226 179.288ZM388.497 179.288C387.137 179.288 385.969 178.928 384.993 178.208C384.017 177.488 383.265 176.48 382.737 175.184C382.225 173.872 381.969 172.344 381.969 170.6C381.969 168.856 382.225 167.336 382.737 166.04C383.265 164.728 384.017 163.712 384.993 162.992C385.969 162.272 387.137 161.912 388.497 161.912C389.857 161.912 391.025 162.272 392.001 162.992C392.977 163.712 393.721 164.728 394.233 166.04C394.761 167.336 395.025 168.856 395.025 170.6C395.025 172.344 394.761 173.872 394.233 175.184C393.721 176.48 392.977 177.488 392.001 178.208C391.025 178.928 389.857 179.288 388.497 179.288ZM388.497 177.392C389.825 177.392 390.897 176.8 391.713 175.616C392.545 174.432 392.961 172.76 392.961 170.6C392.961 168.44 392.545 166.768 391.713 165.584C390.897 164.4 389.825 163.808 388.497 163.808C387.153 163.808 386.073 164.4 385.257 165.584C384.441 166.768 384.033 168.44 384.033 170.6C384.033 172.76 384.441 174.432 385.257 175.616C386.073 176.8 387.153 177.392 388.497 177.392ZM397.056 179V162.2H399.12L406.752 175.472V162.2H408.744V179H406.656L399.024 165.728V179H397.056ZM411.854 179V177.416C413.582 176.04 415.086 174.776 416.366 173.624C417.662 172.472 418.662 171.36 419.366 170.288C420.07 169.216 420.422 168.12 420.422 167C420.422 165.992 420.134 165.2 419.558 164.624C418.998 164.032 418.238 163.736 417.278 163.736C416.542 163.736 415.918 163.896 415.406 164.216C414.894 164.536 414.51 164.96 414.254 165.488C413.998 166.016 413.87 166.584 413.87 167.192H411.878C411.894 166.088 412.134 165.144 412.598 164.36C413.078 163.56 413.718 162.952 414.518 162.536C415.334 162.12 416.254 161.912 417.278 161.912C418.926 161.912 420.206 162.368 421.118 163.28C422.03 164.192 422.486 165.416 422.486 166.952C422.486 167.96 422.27 168.928 421.838 169.856C421.406 170.768 420.83 171.648 420.11 172.496C419.39 173.344 418.582 174.16 417.686 174.944C416.79 175.728 415.886 176.48 414.974 177.2H422.942V179H411.854ZM431.669 169.568C431.173 169.568 430.749 169.4 430.397 169.064C430.045 168.728 429.869 168.312 429.869 167.816C429.869 167.336 430.045 166.928 430.397 166.592C430.749 166.256 431.173 166.088 431.669 166.088C432.165 166.088 432.589 166.256 432.941 166.592C433.293 166.928 433.469 167.336 433.469 167.816C433.469 168.312 433.293 168.728 432.941 169.064C432.589 169.4 432.165 169.568 431.669 169.568ZM428.405 181.928L430.517 175.472H433.181L430.325 181.928H428.405Z" fill="#12FF80"/>
</g>
<defs>
<clipPath id="clip0_591_32044">
<rect width="526" height="217" fill="white"/>
</clipPath>
</defs>
</svg>
